<mxfile host="Electron" agent="Mozilla/5.0 (Windows NT 10.0; Win64; x64) AppleWebKit/537.36 (KHTML, like Gecko) draw.io/24.7.17 Chrome/128.0.6613.36 Electron/32.0.1 Safari/537.36" border="50" scale="3" compressed="false" locked="false" version="24.7.17">
  <diagram name="Blank" id="YmL12bMKpDGza6XwsDPr">
    <mxGraphModel dx="1908" dy="1714" grid="1" gridSize="10" guides="1" tooltips="1" connect="1" arrows="1" fold="1" page="0" pageScale="1" pageWidth="827" pageHeight="1169" background="none" math="1" shadow="0">
      <root>
        <mxCell id="X5NqExCQtvZxIxQ7pmgY-0" />
        <mxCell id="1" parent="X5NqExCQtvZxIxQ7pmgY-0" />
        <mxCell id="Ww5PmhQgJCaVkp0zgMcv-7" value="Безопасность данных" style="ellipse;whiteSpace=wrap;html=1;align=center;newEdgeStyle={&quot;edgeStyle&quot;:&quot;entityRelationEdgeStyle&quot;,&quot;startArrow&quot;:&quot;none&quot;,&quot;endArrow&quot;:&quot;none&quot;,&quot;segment&quot;:10,&quot;curved&quot;:1,&quot;sourcePerimeterSpacing&quot;:0,&quot;targetPerimeterSpacing&quot;:0};treeFolding=1;treeMoving=1;" vertex="1" parent="1">
          <mxGeometry x="250" y="560.5" width="100" height="40" as="geometry" />
        </mxCell>
        <mxCell id="Ww5PmhQgJCaVkp0zgMcv-41" style="edgeStyle=entityRelationEdgeStyle;rounded=0;orthogonalLoop=1;jettySize=auto;html=1;startArrow=none;endArrow=none;segment=10;curved=1;sourcePerimeterSpacing=0;targetPerimeterSpacing=0;entryX=0;entryY=1;entryDx=0;entryDy=0;" edge="1" parent="1" source="Ww5PmhQgJCaVkp0zgMcv-18" target="Ww5PmhQgJCaVkp0zgMcv-40">
          <mxGeometry relative="1" as="geometry" />
        </mxCell>
        <mxCell id="Ww5PmhQgJCaVkp0zgMcv-43" style="edgeStyle=entityRelationEdgeStyle;rounded=0;orthogonalLoop=1;jettySize=auto;html=1;startArrow=none;endArrow=none;segment=10;curved=1;sourcePerimeterSpacing=0;targetPerimeterSpacing=0;entryX=0;entryY=1;entryDx=0;entryDy=0;" edge="1" parent="1" source="Ww5PmhQgJCaVkp0zgMcv-18" target="Ww5PmhQgJCaVkp0zgMcv-42">
          <mxGeometry relative="1" as="geometry" />
        </mxCell>
        <mxCell id="Ww5PmhQgJCaVkp0zgMcv-45" style="edgeStyle=entityRelationEdgeStyle;rounded=0;orthogonalLoop=1;jettySize=auto;html=1;startArrow=none;endArrow=none;segment=10;curved=1;sourcePerimeterSpacing=0;targetPerimeterSpacing=0;entryX=0;entryY=1;entryDx=0;entryDy=0;" edge="1" parent="1" source="Ww5PmhQgJCaVkp0zgMcv-18" target="Ww5PmhQgJCaVkp0zgMcv-44">
          <mxGeometry relative="1" as="geometry" />
        </mxCell>
        <mxCell id="Ww5PmhQgJCaVkp0zgMcv-47" style="edgeStyle=entityRelationEdgeStyle;rounded=0;orthogonalLoop=1;jettySize=auto;html=1;startArrow=none;endArrow=none;segment=10;curved=1;sourcePerimeterSpacing=0;targetPerimeterSpacing=0;entryX=0;entryY=1;entryDx=0;entryDy=0;" edge="1" parent="1" source="Ww5PmhQgJCaVkp0zgMcv-18" target="Ww5PmhQgJCaVkp0zgMcv-46">
          <mxGeometry relative="1" as="geometry" />
        </mxCell>
        <mxCell id="Ww5PmhQgJCaVkp0zgMcv-105" style="edgeStyle=entityRelationEdgeStyle;rounded=0;orthogonalLoop=1;jettySize=auto;html=1;startArrow=none;endArrow=none;segment=10;curved=1;sourcePerimeterSpacing=0;targetPerimeterSpacing=0;entryX=0;entryY=1;entryDx=0;entryDy=0;" edge="1" parent="1" source="Ww5PmhQgJCaVkp0zgMcv-18" target="Ww5PmhQgJCaVkp0zgMcv-101">
          <mxGeometry relative="1" as="geometry" />
        </mxCell>
        <mxCell id="Ww5PmhQgJCaVkp0zgMcv-18" value="конфиденциальные&amp;nbsp;" style="whiteSpace=wrap;html=1;shape=partialRectangle;top=0;left=0;bottom=1;right=0;points=[[0,1],[1,1]];fillColor=none;align=center;verticalAlign=bottom;routingCenterY=0.5;snapToPoint=1;recursiveResize=0;autosize=1;treeFolding=1;treeMoving=1;newEdgeStyle={&quot;edgeStyle&quot;:&quot;entityRelationEdgeStyle&quot;,&quot;startArrow&quot;:&quot;none&quot;,&quot;endArrow&quot;:&quot;none&quot;,&quot;segment&quot;:10,&quot;curved&quot;:1,&quot;sourcePerimeterSpacing&quot;:0,&quot;targetPerimeterSpacing&quot;:0};" vertex="1" parent="1">
          <mxGeometry x="467" y="848" width="149" height="26" as="geometry" />
        </mxCell>
        <mxCell id="Ww5PmhQgJCaVkp0zgMcv-19" value="" style="edgeStyle=entityRelationEdgeStyle;startArrow=none;endArrow=none;segment=10;curved=1;sourcePerimeterSpacing=0;targetPerimeterSpacing=0;rounded=0;exitX=1;exitY=0.5;exitDx=0;exitDy=0;" edge="1" target="Ww5PmhQgJCaVkp0zgMcv-18" parent="1" source="Ww5PmhQgJCaVkp0zgMcv-7">
          <mxGeometry relative="1" as="geometry">
            <mxPoint x="227" y="488" as="sourcePoint" />
          </mxGeometry>
        </mxCell>
        <mxCell id="Ww5PmhQgJCaVkp0zgMcv-35" style="edgeStyle=entityRelationEdgeStyle;rounded=0;orthogonalLoop=1;jettySize=auto;html=1;startArrow=none;endArrow=none;segment=10;curved=1;sourcePerimeterSpacing=0;targetPerimeterSpacing=0;entryX=0;entryY=1;entryDx=0;entryDy=0;" edge="1" parent="1" source="Ww5PmhQgJCaVkp0zgMcv-20" target="Ww5PmhQgJCaVkp0zgMcv-31">
          <mxGeometry relative="1" as="geometry" />
        </mxCell>
        <mxCell id="Ww5PmhQgJCaVkp0zgMcv-37" style="edgeStyle=entityRelationEdgeStyle;rounded=0;orthogonalLoop=1;jettySize=auto;html=1;startArrow=none;endArrow=none;segment=10;curved=1;sourcePerimeterSpacing=0;targetPerimeterSpacing=0;entryX=0;entryY=1;entryDx=0;entryDy=0;" edge="1" parent="1" source="Ww5PmhQgJCaVkp0zgMcv-20" target="Ww5PmhQgJCaVkp0zgMcv-33">
          <mxGeometry relative="1" as="geometry" />
        </mxCell>
        <mxCell id="Ww5PmhQgJCaVkp0zgMcv-20" value="публичные" style="whiteSpace=wrap;html=1;shape=partialRectangle;top=0;left=0;bottom=1;right=0;points=[[0,1],[1,1]];fillColor=none;align=center;verticalAlign=bottom;routingCenterY=0.5;snapToPoint=1;recursiveResize=0;autosize=1;treeFolding=1;treeMoving=1;newEdgeStyle={&quot;edgeStyle&quot;:&quot;entityRelationEdgeStyle&quot;,&quot;startArrow&quot;:&quot;none&quot;,&quot;endArrow&quot;:&quot;none&quot;,&quot;segment&quot;:10,&quot;curved&quot;:1,&quot;sourcePerimeterSpacing&quot;:0,&quot;targetPerimeterSpacing&quot;:0};" vertex="1" parent="1">
          <mxGeometry x="520" y="55" width="96" height="26" as="geometry" />
        </mxCell>
        <mxCell id="Ww5PmhQgJCaVkp0zgMcv-21" value="" style="edgeStyle=entityRelationEdgeStyle;startArrow=none;endArrow=none;segment=10;curved=1;sourcePerimeterSpacing=0;targetPerimeterSpacing=0;rounded=0;exitX=1;exitY=0.5;exitDx=0;exitDy=0;" edge="1" target="Ww5PmhQgJCaVkp0zgMcv-20" parent="1" source="Ww5PmhQgJCaVkp0zgMcv-7">
          <mxGeometry relative="1" as="geometry">
            <mxPoint x="410" y="339" as="sourcePoint" />
          </mxGeometry>
        </mxCell>
        <mxCell id="Ww5PmhQgJCaVkp0zgMcv-22" value="секретные" style="whiteSpace=wrap;html=1;shape=partialRectangle;top=0;left=0;bottom=1;right=0;points=[[0,1],[1,1]];fillColor=none;align=center;verticalAlign=bottom;routingCenterY=0.5;snapToPoint=1;recursiveResize=0;autosize=1;treeFolding=1;treeMoving=1;newEdgeStyle={&quot;edgeStyle&quot;:&quot;entityRelationEdgeStyle&quot;,&quot;startArrow&quot;:&quot;none&quot;,&quot;endArrow&quot;:&quot;none&quot;,&quot;segment&quot;:10,&quot;curved&quot;:1,&quot;sourcePerimeterSpacing&quot;:0,&quot;targetPerimeterSpacing&quot;:0};" vertex="1" parent="1">
          <mxGeometry x="467" y="553" width="93" height="26" as="geometry" />
        </mxCell>
        <mxCell id="Ww5PmhQgJCaVkp0zgMcv-23" value="" style="edgeStyle=entityRelationEdgeStyle;startArrow=none;endArrow=none;segment=10;curved=1;sourcePerimeterSpacing=0;targetPerimeterSpacing=0;rounded=0;" edge="1" target="Ww5PmhQgJCaVkp0zgMcv-22" parent="1" source="Ww5PmhQgJCaVkp0zgMcv-7">
          <mxGeometry relative="1" as="geometry">
            <mxPoint x="443" y="458" as="sourcePoint" />
          </mxGeometry>
        </mxCell>
        <mxCell id="Ww5PmhQgJCaVkp0zgMcv-39" style="edgeStyle=entityRelationEdgeStyle;rounded=0;orthogonalLoop=1;jettySize=auto;html=1;startArrow=none;endArrow=none;segment=10;curved=1;sourcePerimeterSpacing=0;targetPerimeterSpacing=0;entryX=0;entryY=1;entryDx=0;entryDy=0;" edge="1" parent="1" source="Ww5PmhQgJCaVkp0zgMcv-24" target="Ww5PmhQgJCaVkp0zgMcv-38">
          <mxGeometry relative="1" as="geometry" />
        </mxCell>
        <mxCell id="Ww5PmhQgJCaVkp0zgMcv-111" style="edgeStyle=entityRelationEdgeStyle;rounded=0;orthogonalLoop=1;jettySize=auto;html=1;startArrow=none;endArrow=none;segment=10;curved=1;sourcePerimeterSpacing=0;targetPerimeterSpacing=0;entryX=0;entryY=1;entryDx=0;entryDy=0;" edge="1" parent="1" source="Ww5PmhQgJCaVkp0zgMcv-24" target="Ww5PmhQgJCaVkp0zgMcv-29">
          <mxGeometry relative="1" as="geometry" />
        </mxCell>
        <mxCell id="Ww5PmhQgJCaVkp0zgMcv-24" value="внутренние" style="whiteSpace=wrap;html=1;shape=partialRectangle;top=0;left=0;bottom=1;right=0;points=[[0,1],[1,1]];fillColor=none;align=center;verticalAlign=bottom;routingCenterY=0.5;snapToPoint=1;recursiveResize=0;autosize=1;treeFolding=1;treeMoving=1;newEdgeStyle={&quot;edgeStyle&quot;:&quot;entityRelationEdgeStyle&quot;,&quot;startArrow&quot;:&quot;none&quot;,&quot;endArrow&quot;:&quot;none&quot;,&quot;segment&quot;:10,&quot;curved&quot;:1,&quot;sourcePerimeterSpacing&quot;:0,&quot;targetPerimeterSpacing&quot;:0};" vertex="1" parent="1">
          <mxGeometry x="505" y="370" width="99" height="26" as="geometry" />
        </mxCell>
        <mxCell id="Ww5PmhQgJCaVkp0zgMcv-25" value="" style="edgeStyle=entityRelationEdgeStyle;startArrow=none;endArrow=none;segment=10;curved=1;sourcePerimeterSpacing=0;targetPerimeterSpacing=0;rounded=0;exitX=1;exitY=0.5;exitDx=0;exitDy=0;" edge="1" target="Ww5PmhQgJCaVkp0zgMcv-24" parent="1" source="Ww5PmhQgJCaVkp0zgMcv-7">
          <mxGeometry relative="1" as="geometry">
            <mxPoint x="500" y="350" as="sourcePoint" />
          </mxGeometry>
        </mxCell>
        <mxCell id="Ww5PmhQgJCaVkp0zgMcv-66" style="edgeStyle=entityRelationEdgeStyle;rounded=0;orthogonalLoop=1;jettySize=auto;html=1;startArrow=none;endArrow=none;segment=10;curved=1;sourcePerimeterSpacing=0;targetPerimeterSpacing=0;entryX=0;entryY=1;entryDx=0;entryDy=0;" edge="1" parent="1" source="Ww5PmhQgJCaVkp0zgMcv-27" target="Ww5PmhQgJCaVkp0zgMcv-65">
          <mxGeometry relative="1" as="geometry" />
        </mxCell>
        <mxCell id="Ww5PmhQgJCaVkp0zgMcv-82" style="edgeStyle=entityRelationEdgeStyle;rounded=0;orthogonalLoop=1;jettySize=auto;html=1;startArrow=none;endArrow=none;segment=10;curved=1;sourcePerimeterSpacing=0;targetPerimeterSpacing=0;entryX=0;entryY=1;entryDx=0;entryDy=0;" edge="1" parent="1" source="Ww5PmhQgJCaVkp0zgMcv-27" target="Ww5PmhQgJCaVkp0zgMcv-80">
          <mxGeometry relative="1" as="geometry" />
        </mxCell>
        <mxCell id="Ww5PmhQgJCaVkp0zgMcv-27" value="обьекты недвижимости" style="whiteSpace=wrap;html=1;shape=partialRectangle;top=0;left=0;bottom=1;right=0;points=[[0,1],[1,1]];fillColor=none;align=center;verticalAlign=bottom;routingCenterY=0.5;snapToPoint=1;recursiveResize=0;autosize=1;treeFolding=1;treeMoving=1;newEdgeStyle={&quot;edgeStyle&quot;:&quot;entityRelationEdgeStyle&quot;,&quot;startArrow&quot;:&quot;none&quot;,&quot;endArrow&quot;:&quot;none&quot;,&quot;segment&quot;:10,&quot;curved&quot;:1,&quot;sourcePerimeterSpacing&quot;:0,&quot;targetPerimeterSpacing&quot;:0};" vertex="1" parent="1">
          <mxGeometry x="714" y="-64.5" width="165" height="26" as="geometry" />
        </mxCell>
        <mxCell id="Ww5PmhQgJCaVkp0zgMcv-28" value="" style="edgeStyle=entityRelationEdgeStyle;startArrow=none;endArrow=none;segment=10;curved=1;sourcePerimeterSpacing=0;targetPerimeterSpacing=0;rounded=0;exitX=1;exitY=1;exitDx=0;exitDy=0;" edge="1" target="Ww5PmhQgJCaVkp0zgMcv-27" parent="1" source="Ww5PmhQgJCaVkp0zgMcv-20">
          <mxGeometry relative="1" as="geometry">
            <mxPoint x="27" y="230" as="sourcePoint" />
          </mxGeometry>
        </mxCell>
        <mxCell id="Ww5PmhQgJCaVkp0zgMcv-68" style="edgeStyle=entityRelationEdgeStyle;rounded=0;orthogonalLoop=1;jettySize=auto;html=1;startArrow=none;endArrow=none;segment=10;curved=1;sourcePerimeterSpacing=0;targetPerimeterSpacing=0;entryX=0;entryY=1;entryDx=0;entryDy=0;" edge="1" parent="1" source="Ww5PmhQgJCaVkp0zgMcv-29" target="Ww5PmhQgJCaVkp0zgMcv-63">
          <mxGeometry relative="1" as="geometry" />
        </mxCell>
        <mxCell id="Ww5PmhQgJCaVkp0zgMcv-85" style="edgeStyle=entityRelationEdgeStyle;rounded=0;orthogonalLoop=1;jettySize=auto;html=1;startArrow=none;endArrow=none;segment=10;curved=1;sourcePerimeterSpacing=0;targetPerimeterSpacing=0;entryX=0;entryY=1;entryDx=0;entryDy=0;" edge="1" parent="1" source="Ww5PmhQgJCaVkp0zgMcv-29" target="Ww5PmhQgJCaVkp0zgMcv-84">
          <mxGeometry relative="1" as="geometry" />
        </mxCell>
        <mxCell id="Ww5PmhQgJCaVkp0zgMcv-29" value="онлайн-тур" style="whiteSpace=wrap;html=1;shape=partialRectangle;top=0;left=0;bottom=1;right=0;points=[[0,1],[1,1]];fillColor=none;align=center;verticalAlign=bottom;routingCenterY=0.5;snapToPoint=1;recursiveResize=0;autosize=1;treeFolding=1;treeMoving=1;newEdgeStyle={&quot;edgeStyle&quot;:&quot;entityRelationEdgeStyle&quot;,&quot;startArrow&quot;:&quot;none&quot;,&quot;endArrow&quot;:&quot;none&quot;,&quot;segment&quot;:10,&quot;curved&quot;:1,&quot;sourcePerimeterSpacing&quot;:0,&quot;targetPerimeterSpacing&quot;:0};" vertex="1" parent="1">
          <mxGeometry x="725" y="330" width="97" height="26" as="geometry" />
        </mxCell>
        <mxCell id="Ww5PmhQgJCaVkp0zgMcv-106" style="edgeStyle=entityRelationEdgeStyle;rounded=0;orthogonalLoop=1;jettySize=auto;html=1;startArrow=none;endArrow=none;segment=10;curved=1;sourcePerimeterSpacing=0;targetPerimeterSpacing=0;entryX=0;entryY=1;entryDx=0;entryDy=0;" edge="1" parent="1" source="Ww5PmhQgJCaVkp0zgMcv-31" target="Ww5PmhQgJCaVkp0zgMcv-62">
          <mxGeometry relative="1" as="geometry" />
        </mxCell>
        <mxCell id="Ww5PmhQgJCaVkp0zgMcv-107" style="edgeStyle=entityRelationEdgeStyle;rounded=0;orthogonalLoop=1;jettySize=auto;html=1;startArrow=none;endArrow=none;segment=10;curved=1;sourcePerimeterSpacing=0;targetPerimeterSpacing=0;entryX=0;entryY=1;entryDx=0;entryDy=0;" edge="1" parent="1" source="Ww5PmhQgJCaVkp0zgMcv-31" target="Ww5PmhQgJCaVkp0zgMcv-81">
          <mxGeometry relative="1" as="geometry" />
        </mxCell>
        <mxCell id="Ww5PmhQgJCaVkp0zgMcv-31" value="капитальный ремонт" style="whiteSpace=wrap;html=1;shape=partialRectangle;top=0;left=0;bottom=1;right=0;points=[[0,1],[1,1]];fillColor=none;align=center;verticalAlign=bottom;routingCenterY=0.5;snapToPoint=1;recursiveResize=0;autosize=1;treeFolding=1;treeMoving=1;newEdgeStyle={&quot;edgeStyle&quot;:&quot;entityRelationEdgeStyle&quot;,&quot;startArrow&quot;:&quot;none&quot;,&quot;endArrow&quot;:&quot;none&quot;,&quot;segment&quot;:10,&quot;curved&quot;:1,&quot;sourcePerimeterSpacing&quot;:0,&quot;targetPerimeterSpacing&quot;:0};" vertex="1" parent="1">
          <mxGeometry x="728" y="55" width="151" height="26" as="geometry" />
        </mxCell>
        <mxCell id="Ww5PmhQgJCaVkp0zgMcv-109" style="edgeStyle=entityRelationEdgeStyle;rounded=0;orthogonalLoop=1;jettySize=auto;html=1;startArrow=none;endArrow=none;segment=10;curved=1;sourcePerimeterSpacing=0;targetPerimeterSpacing=0;entryX=0;entryY=1;entryDx=0;entryDy=0;" edge="1" parent="1" source="Ww5PmhQgJCaVkp0zgMcv-33" target="Ww5PmhQgJCaVkp0zgMcv-64">
          <mxGeometry relative="1" as="geometry" />
        </mxCell>
        <mxCell id="Ww5PmhQgJCaVkp0zgMcv-110" style="edgeStyle=entityRelationEdgeStyle;rounded=0;orthogonalLoop=1;jettySize=auto;html=1;startArrow=none;endArrow=none;segment=10;curved=1;sourcePerimeterSpacing=0;targetPerimeterSpacing=0;entryX=0;entryY=1;entryDx=0;entryDy=0;" edge="1" parent="1" source="Ww5PmhQgJCaVkp0zgMcv-33" target="Ww5PmhQgJCaVkp0zgMcv-86">
          <mxGeometry relative="1" as="geometry" />
        </mxCell>
        <mxCell id="Ww5PmhQgJCaVkp0zgMcv-33" value="перечень услуг ЖКХ" style="whiteSpace=wrap;html=1;shape=partialRectangle;top=0;left=0;bottom=1;right=0;points=[[0,1],[1,1]];fillColor=none;align=center;verticalAlign=bottom;routingCenterY=0.5;snapToPoint=1;recursiveResize=0;autosize=1;treeFolding=1;treeMoving=1;newEdgeStyle={&quot;edgeStyle&quot;:&quot;entityRelationEdgeStyle&quot;,&quot;startArrow&quot;:&quot;none&quot;,&quot;endArrow&quot;:&quot;none&quot;,&quot;segment&quot;:10,&quot;curved&quot;:1,&quot;sourcePerimeterSpacing&quot;:0,&quot;targetPerimeterSpacing&quot;:0};" vertex="1" parent="1">
          <mxGeometry x="729" y="177" width="149" height="26" as="geometry" />
        </mxCell>
        <mxCell id="Ww5PmhQgJCaVkp0zgMcv-55" style="edgeStyle=entityRelationEdgeStyle;rounded=0;orthogonalLoop=1;jettySize=auto;html=1;startArrow=none;endArrow=none;segment=10;curved=1;sourcePerimeterSpacing=0;targetPerimeterSpacing=0;entryX=0;entryY=1;entryDx=0;entryDy=0;" edge="1" parent="1" source="Ww5PmhQgJCaVkp0zgMcv-38" target="Ww5PmhQgJCaVkp0zgMcv-54">
          <mxGeometry relative="1" as="geometry" />
        </mxCell>
        <mxCell id="Ww5PmhQgJCaVkp0zgMcv-71" style="edgeStyle=entityRelationEdgeStyle;rounded=0;orthogonalLoop=1;jettySize=auto;html=1;startArrow=none;endArrow=none;segment=10;curved=1;sourcePerimeterSpacing=0;targetPerimeterSpacing=0;entryX=0;entryY=1;entryDx=0;entryDy=0;" edge="1" parent="1" source="Ww5PmhQgJCaVkp0zgMcv-38" target="Ww5PmhQgJCaVkp0zgMcv-70">
          <mxGeometry relative="1" as="geometry" />
        </mxCell>
        <mxCell id="Ww5PmhQgJCaVkp0zgMcv-89" style="edgeStyle=entityRelationEdgeStyle;rounded=0;orthogonalLoop=1;jettySize=auto;html=1;startArrow=none;endArrow=none;segment=10;curved=1;sourcePerimeterSpacing=0;targetPerimeterSpacing=0;entryX=0;entryY=1;entryDx=0;entryDy=0;" edge="1" parent="1" source="Ww5PmhQgJCaVkp0zgMcv-38" target="Ww5PmhQgJCaVkp0zgMcv-88">
          <mxGeometry relative="1" as="geometry" />
        </mxCell>
        <mxCell id="Ww5PmhQgJCaVkp0zgMcv-38" value="системные и технические&lt;div&gt;данные&lt;/div&gt;" style="whiteSpace=wrap;html=1;shape=partialRectangle;top=0;left=0;bottom=1;right=0;points=[[0,1],[1,1]];fillColor=none;align=center;verticalAlign=bottom;routingCenterY=0.5;snapToPoint=1;recursiveResize=0;autosize=1;treeFolding=1;treeMoving=1;newEdgeStyle={&quot;edgeStyle&quot;:&quot;entityRelationEdgeStyle&quot;,&quot;startArrow&quot;:&quot;none&quot;,&quot;endArrow&quot;:&quot;none&quot;,&quot;segment&quot;:10,&quot;curved&quot;:1,&quot;sourcePerimeterSpacing&quot;:0,&quot;targetPerimeterSpacing&quot;:0};" vertex="1" parent="1">
          <mxGeometry x="700" y="405" width="178" height="41" as="geometry" />
        </mxCell>
        <mxCell id="Ww5PmhQgJCaVkp0zgMcv-51" style="edgeStyle=entityRelationEdgeStyle;rounded=0;orthogonalLoop=1;jettySize=auto;html=1;startArrow=none;endArrow=none;segment=10;curved=1;sourcePerimeterSpacing=0;targetPerimeterSpacing=0;entryX=0;entryY=1;entryDx=0;entryDy=0;" edge="1" parent="1" source="Ww5PmhQgJCaVkp0zgMcv-40" target="Ww5PmhQgJCaVkp0zgMcv-50">
          <mxGeometry relative="1" as="geometry" />
        </mxCell>
        <mxCell id="Ww5PmhQgJCaVkp0zgMcv-73" style="edgeStyle=entityRelationEdgeStyle;rounded=0;orthogonalLoop=1;jettySize=auto;html=1;startArrow=none;endArrow=none;segment=10;curved=1;sourcePerimeterSpacing=0;targetPerimeterSpacing=0;entryX=0;entryY=1;entryDx=0;entryDy=0;" edge="1" parent="1" source="Ww5PmhQgJCaVkp0zgMcv-40" target="Ww5PmhQgJCaVkp0zgMcv-72">
          <mxGeometry relative="1" as="geometry" />
        </mxCell>
        <mxCell id="Ww5PmhQgJCaVkp0zgMcv-91" style="edgeStyle=entityRelationEdgeStyle;rounded=0;orthogonalLoop=1;jettySize=auto;html=1;startArrow=none;endArrow=none;segment=10;curved=1;sourcePerimeterSpacing=0;targetPerimeterSpacing=0;entryX=0;entryY=1;entryDx=0;entryDy=0;" edge="1" parent="1" source="Ww5PmhQgJCaVkp0zgMcv-40" target="Ww5PmhQgJCaVkp0zgMcv-90">
          <mxGeometry relative="1" as="geometry" />
        </mxCell>
        <mxCell id="Ww5PmhQgJCaVkp0zgMcv-40" value="персональные&lt;div&gt;данные&amp;nbsp;&lt;span style=&quot;background-color: initial;&quot;&gt;клиентов&lt;/span&gt;&lt;/div&gt;" style="whiteSpace=wrap;html=1;shape=partialRectangle;top=0;left=0;bottom=1;right=0;points=[[0,1],[1,1]];fillColor=none;align=center;verticalAlign=bottom;routingCenterY=0.5;snapToPoint=1;recursiveResize=0;autosize=1;treeFolding=1;treeMoving=1;newEdgeStyle={&quot;edgeStyle&quot;:&quot;entityRelationEdgeStyle&quot;,&quot;startArrow&quot;:&quot;none&quot;,&quot;endArrow&quot;:&quot;none&quot;,&quot;segment&quot;:10,&quot;curved&quot;:1,&quot;sourcePerimeterSpacing&quot;:0,&quot;targetPerimeterSpacing&quot;:0};" vertex="1" parent="1">
          <mxGeometry x="731" y="559" width="131" height="41" as="geometry" />
        </mxCell>
        <mxCell id="Ww5PmhQgJCaVkp0zgMcv-61" style="edgeStyle=entityRelationEdgeStyle;rounded=0;orthogonalLoop=1;jettySize=auto;html=1;startArrow=none;endArrow=none;segment=10;curved=1;sourcePerimeterSpacing=0;targetPerimeterSpacing=0;entryX=0;entryY=1;entryDx=0;entryDy=0;" edge="1" parent="1" source="Ww5PmhQgJCaVkp0zgMcv-42" target="Ww5PmhQgJCaVkp0zgMcv-60">
          <mxGeometry relative="1" as="geometry" />
        </mxCell>
        <mxCell id="Ww5PmhQgJCaVkp0zgMcv-75" style="edgeStyle=entityRelationEdgeStyle;rounded=0;orthogonalLoop=1;jettySize=auto;html=1;startArrow=none;endArrow=none;segment=10;curved=1;sourcePerimeterSpacing=0;targetPerimeterSpacing=0;" edge="1" parent="1" source="Ww5PmhQgJCaVkp0zgMcv-42" target="Ww5PmhQgJCaVkp0zgMcv-74">
          <mxGeometry relative="1" as="geometry">
            <mxPoint x="957" y="608.4999999999998" as="targetPoint" />
          </mxGeometry>
        </mxCell>
        <mxCell id="Ww5PmhQgJCaVkp0zgMcv-93" style="edgeStyle=entityRelationEdgeStyle;rounded=0;orthogonalLoop=1;jettySize=auto;html=1;startArrow=none;endArrow=none;segment=10;curved=1;sourcePerimeterSpacing=0;targetPerimeterSpacing=0;entryX=0;entryY=1;entryDx=0;entryDy=0;" edge="1" parent="1" source="Ww5PmhQgJCaVkp0zgMcv-42" target="Ww5PmhQgJCaVkp0zgMcv-92">
          <mxGeometry relative="1" as="geometry" />
        </mxCell>
        <mxCell id="Ww5PmhQgJCaVkp0zgMcv-42" value="платежи&lt;div&gt;клиентов и собственников&lt;/div&gt;" style="whiteSpace=wrap;html=1;shape=partialRectangle;top=0;left=0;bottom=1;right=0;points=[[0,1],[1,1]];fillColor=none;align=center;verticalAlign=bottom;routingCenterY=0.5;snapToPoint=1;recursiveResize=0;autosize=1;treeFolding=1;treeMoving=1;newEdgeStyle={&quot;edgeStyle&quot;:&quot;entityRelationEdgeStyle&quot;,&quot;startArrow&quot;:&quot;none&quot;,&quot;endArrow&quot;:&quot;none&quot;,&quot;segment&quot;:10,&quot;curved&quot;:1,&quot;sourcePerimeterSpacing&quot;:0,&quot;targetPerimeterSpacing&quot;:0};" vertex="1" parent="1">
          <mxGeometry x="697" y="835" width="182" height="41" as="geometry" />
        </mxCell>
        <mxCell id="Ww5PmhQgJCaVkp0zgMcv-58" style="edgeStyle=entityRelationEdgeStyle;rounded=0;orthogonalLoop=1;jettySize=auto;html=1;startArrow=none;endArrow=none;segment=10;curved=1;sourcePerimeterSpacing=0;targetPerimeterSpacing=0;entryX=0;entryY=1;entryDx=0;entryDy=0;" edge="1" parent="1" source="Ww5PmhQgJCaVkp0zgMcv-44" target="Ww5PmhQgJCaVkp0zgMcv-57">
          <mxGeometry relative="1" as="geometry" />
        </mxCell>
        <mxCell id="Ww5PmhQgJCaVkp0zgMcv-77" style="edgeStyle=entityRelationEdgeStyle;rounded=0;orthogonalLoop=1;jettySize=auto;html=1;startArrow=none;endArrow=none;segment=10;curved=1;sourcePerimeterSpacing=0;targetPerimeterSpacing=0;entryX=0;entryY=1;entryDx=0;entryDy=0;" edge="1" parent="1" source="Ww5PmhQgJCaVkp0zgMcv-44" target="Ww5PmhQgJCaVkp0zgMcv-76">
          <mxGeometry relative="1" as="geometry" />
        </mxCell>
        <mxCell id="Ww5PmhQgJCaVkp0zgMcv-95" style="edgeStyle=entityRelationEdgeStyle;rounded=0;orthogonalLoop=1;jettySize=auto;html=1;startArrow=none;endArrow=none;segment=10;curved=1;sourcePerimeterSpacing=0;targetPerimeterSpacing=0;entryX=0;entryY=1;entryDx=0;entryDy=0;" edge="1" parent="1" source="Ww5PmhQgJCaVkp0zgMcv-44" target="Ww5PmhQgJCaVkp0zgMcv-94">
          <mxGeometry relative="1" as="geometry" />
        </mxCell>
        <mxCell id="Ww5PmhQgJCaVkp0zgMcv-44" value="сделки с недвижимостью" style="whiteSpace=wrap;html=1;shape=partialRectangle;top=0;left=0;bottom=1;right=0;points=[[0,1],[1,1]];fillColor=none;align=center;verticalAlign=bottom;routingCenterY=0.5;snapToPoint=1;recursiveResize=0;autosize=1;treeFolding=1;treeMoving=1;newEdgeStyle={&quot;edgeStyle&quot;:&quot;entityRelationEdgeStyle&quot;,&quot;startArrow&quot;:&quot;none&quot;,&quot;endArrow&quot;:&quot;none&quot;,&quot;segment&quot;:10,&quot;curved&quot;:1,&quot;sourcePerimeterSpacing&quot;:0,&quot;targetPerimeterSpacing&quot;:0};" vertex="1" parent="1">
          <mxGeometry x="704" y="980" width="175" height="26" as="geometry" />
        </mxCell>
        <mxCell id="Ww5PmhQgJCaVkp0zgMcv-53" style="edgeStyle=entityRelationEdgeStyle;rounded=0;orthogonalLoop=1;jettySize=auto;html=1;startArrow=none;endArrow=none;segment=10;curved=1;sourcePerimeterSpacing=0;targetPerimeterSpacing=0;entryX=0;entryY=1;entryDx=0;entryDy=0;" edge="1" parent="1" source="Ww5PmhQgJCaVkp0zgMcv-46" target="Ww5PmhQgJCaVkp0zgMcv-52">
          <mxGeometry relative="1" as="geometry" />
        </mxCell>
        <mxCell id="Ww5PmhQgJCaVkp0zgMcv-79" style="edgeStyle=entityRelationEdgeStyle;rounded=0;orthogonalLoop=1;jettySize=auto;html=1;startArrow=none;endArrow=none;segment=10;curved=1;sourcePerimeterSpacing=0;targetPerimeterSpacing=0;entryX=0;entryY=1;entryDx=0;entryDy=0;" edge="1" parent="1" source="Ww5PmhQgJCaVkp0zgMcv-46" target="Ww5PmhQgJCaVkp0zgMcv-78">
          <mxGeometry relative="1" as="geometry" />
        </mxCell>
        <mxCell id="Ww5PmhQgJCaVkp0zgMcv-97" style="edgeStyle=entityRelationEdgeStyle;rounded=0;orthogonalLoop=1;jettySize=auto;html=1;startArrow=none;endArrow=none;segment=10;curved=1;sourcePerimeterSpacing=0;targetPerimeterSpacing=0;entryX=0;entryY=1;entryDx=0;entryDy=0;" edge="1" parent="1" source="Ww5PmhQgJCaVkp0zgMcv-46" target="Ww5PmhQgJCaVkp0zgMcv-96">
          <mxGeometry relative="1" as="geometry" />
        </mxCell>
        <mxCell id="Ww5PmhQgJCaVkp0zgMcv-46" value="бухгалтерия" style="whiteSpace=wrap;html=1;shape=partialRectangle;top=0;left=0;bottom=1;right=0;points=[[0,1],[1,1]];fillColor=none;align=center;verticalAlign=bottom;routingCenterY=0.5;snapToPoint=1;recursiveResize=0;autosize=1;treeFolding=1;treeMoving=1;newEdgeStyle={&quot;edgeStyle&quot;:&quot;entityRelationEdgeStyle&quot;,&quot;startArrow&quot;:&quot;none&quot;,&quot;endArrow&quot;:&quot;none&quot;,&quot;segment&quot;:10,&quot;curved&quot;:1,&quot;sourcePerimeterSpacing&quot;:0,&quot;targetPerimeterSpacing&quot;:0};" vertex="1" parent="1">
          <mxGeometry x="714" y="1110" width="103" height="26" as="geometry" />
        </mxCell>
        <mxCell id="Ww5PmhQgJCaVkp0zgMcv-146" style="edgeStyle=entityRelationEdgeStyle;rounded=0;orthogonalLoop=1;jettySize=auto;html=1;startArrow=none;endArrow=none;segment=10;curved=1;sourcePerimeterSpacing=0;targetPerimeterSpacing=0;" edge="1" parent="1" source="Ww5PmhQgJCaVkp0zgMcv-50" target="Ww5PmhQgJCaVkp0zgMcv-145">
          <mxGeometry relative="1" as="geometry" />
        </mxCell>
        <mxCell id="Ww5PmhQgJCaVkp0zgMcv-50" value="утечка (критический)" style="whiteSpace=wrap;html=1;shape=partialRectangle;top=0;left=0;bottom=1;right=0;points=[[0,1],[1,1]];fillColor=none;align=center;verticalAlign=bottom;routingCenterY=0.5;snapToPoint=1;recursiveResize=0;autosize=1;treeFolding=1;treeMoving=1;newEdgeStyle={&quot;edgeStyle&quot;:&quot;entityRelationEdgeStyle&quot;,&quot;startArrow&quot;:&quot;none&quot;,&quot;endArrow&quot;:&quot;none&quot;,&quot;segment&quot;:10,&quot;curved&quot;:1,&quot;sourcePerimeterSpacing&quot;:0,&quot;targetPerimeterSpacing&quot;:0};" vertex="1" parent="1">
          <mxGeometry x="919" y="610" width="160" height="30" as="geometry" />
        </mxCell>
        <mxCell id="Ww5PmhQgJCaVkp0zgMcv-181" style="edgeStyle=entityRelationEdgeStyle;rounded=0;orthogonalLoop=1;jettySize=auto;html=1;startArrow=none;endArrow=none;segment=10;curved=1;sourcePerimeterSpacing=0;targetPerimeterSpacing=0;entryX=0;entryY=1;entryDx=0;entryDy=0;" edge="1" parent="1" source="Ww5PmhQgJCaVkp0zgMcv-52" target="Ww5PmhQgJCaVkp0zgMcv-179">
          <mxGeometry relative="1" as="geometry" />
        </mxCell>
        <mxCell id="Ww5PmhQgJCaVkp0zgMcv-52" value="утечка (значительный)" style="whiteSpace=wrap;html=1;shape=partialRectangle;top=0;left=0;bottom=1;right=0;points=[[0,1],[1,1]];fillColor=none;align=center;verticalAlign=bottom;routingCenterY=0.5;snapToPoint=1;recursiveResize=0;autosize=1;treeFolding=1;treeMoving=1;newEdgeStyle={&quot;edgeStyle&quot;:&quot;entityRelationEdgeStyle&quot;,&quot;startArrow&quot;:&quot;none&quot;,&quot;endArrow&quot;:&quot;none&quot;,&quot;segment&quot;:10,&quot;curved&quot;:1,&quot;sourcePerimeterSpacing&quot;:0,&quot;targetPerimeterSpacing&quot;:0};" vertex="1" parent="1">
          <mxGeometry x="919" y="1146" width="170" height="30" as="geometry" />
        </mxCell>
        <mxCell id="Ww5PmhQgJCaVkp0zgMcv-136" style="edgeStyle=entityRelationEdgeStyle;rounded=0;orthogonalLoop=1;jettySize=auto;html=1;startArrow=none;endArrow=none;segment=10;curved=1;sourcePerimeterSpacing=0;targetPerimeterSpacing=0;entryX=0;entryY=1;entryDx=0;entryDy=0;" edge="1" parent="1" source="Ww5PmhQgJCaVkp0zgMcv-54" target="Ww5PmhQgJCaVkp0zgMcv-133">
          <mxGeometry relative="1" as="geometry" />
        </mxCell>
        <mxCell id="Ww5PmhQgJCaVkp0zgMcv-54" value="утечка (критический)" style="whiteSpace=wrap;html=1;shape=partialRectangle;top=0;left=0;bottom=1;right=0;points=[[0,1],[1,1]];fillColor=none;align=center;verticalAlign=bottom;routingCenterY=0.5;snapToPoint=1;recursiveResize=0;autosize=1;treeFolding=1;treeMoving=1;newEdgeStyle={&quot;edgeStyle&quot;:&quot;entityRelationEdgeStyle&quot;,&quot;startArrow&quot;:&quot;none&quot;,&quot;endArrow&quot;:&quot;none&quot;,&quot;segment&quot;:10,&quot;curved&quot;:1,&quot;sourcePerimeterSpacing&quot;:0,&quot;targetPerimeterSpacing&quot;:0};" vertex="1" parent="1">
          <mxGeometry x="921" y="456" width="160" height="27" as="geometry" />
        </mxCell>
        <mxCell id="Ww5PmhQgJCaVkp0zgMcv-175" style="edgeStyle=entityRelationEdgeStyle;rounded=0;orthogonalLoop=1;jettySize=auto;html=1;startArrow=none;endArrow=none;segment=10;curved=1;sourcePerimeterSpacing=0;targetPerimeterSpacing=0;entryX=0;entryY=1;entryDx=0;entryDy=0;" edge="1" parent="1" source="Ww5PmhQgJCaVkp0zgMcv-57" target="Ww5PmhQgJCaVkp0zgMcv-173">
          <mxGeometry relative="1" as="geometry" />
        </mxCell>
        <mxCell id="Ww5PmhQgJCaVkp0zgMcv-57" value="утечка (значительный)" style="whiteSpace=wrap;html=1;shape=partialRectangle;top=0;left=0;bottom=1;right=0;points=[[0,1],[1,1]];fillColor=none;align=center;verticalAlign=bottom;routingCenterY=0.5;snapToPoint=1;recursiveResize=0;autosize=1;treeFolding=1;treeMoving=1;newEdgeStyle={&quot;edgeStyle&quot;:&quot;entityRelationEdgeStyle&quot;,&quot;startArrow&quot;:&quot;none&quot;,&quot;endArrow&quot;:&quot;none&quot;,&quot;segment&quot;:10,&quot;curved&quot;:1,&quot;sourcePerimeterSpacing&quot;:0,&quot;targetPerimeterSpacing&quot;:0};" vertex="1" parent="1">
          <mxGeometry x="921" y="1016" width="170" height="30" as="geometry" />
        </mxCell>
        <mxCell id="Ww5PmhQgJCaVkp0zgMcv-168" style="edgeStyle=entityRelationEdgeStyle;rounded=0;orthogonalLoop=1;jettySize=auto;html=1;startArrow=none;endArrow=none;segment=10;curved=1;sourcePerimeterSpacing=0;targetPerimeterSpacing=0;entryX=0;entryY=1;entryDx=0;entryDy=0;" edge="1" parent="1" source="Ww5PmhQgJCaVkp0zgMcv-60" target="Ww5PmhQgJCaVkp0zgMcv-167">
          <mxGeometry relative="1" as="geometry" />
        </mxCell>
        <mxCell id="Ww5PmhQgJCaVkp0zgMcv-60" value="утечка (значительный)" style="whiteSpace=wrap;html=1;shape=partialRectangle;top=0;left=0;bottom=1;right=0;points=[[0,1],[1,1]];fillColor=none;align=center;verticalAlign=bottom;routingCenterY=0.5;snapToPoint=1;recursiveResize=0;autosize=1;treeFolding=1;treeMoving=1;newEdgeStyle={&quot;edgeStyle&quot;:&quot;entityRelationEdgeStyle&quot;,&quot;startArrow&quot;:&quot;none&quot;,&quot;endArrow&quot;:&quot;none&quot;,&quot;segment&quot;:10,&quot;curved&quot;:1,&quot;sourcePerimeterSpacing&quot;:0,&quot;targetPerimeterSpacing&quot;:0};" vertex="1" parent="1">
          <mxGeometry x="920" y="890" width="170" height="30" as="geometry" />
        </mxCell>
        <mxCell id="Ww5PmhQgJCaVkp0zgMcv-120" style="edgeStyle=entityRelationEdgeStyle;rounded=0;orthogonalLoop=1;jettySize=auto;html=1;startArrow=none;endArrow=none;segment=10;curved=1;sourcePerimeterSpacing=0;targetPerimeterSpacing=0;" edge="1" parent="1" source="Ww5PmhQgJCaVkp0zgMcv-62" target="Ww5PmhQgJCaVkp0zgMcv-119">
          <mxGeometry relative="1" as="geometry" />
        </mxCell>
        <mxCell id="Ww5PmhQgJCaVkp0zgMcv-62" value="потеря (незначительный)" style="whiteSpace=wrap;html=1;shape=partialRectangle;top=0;left=0;bottom=1;right=0;points=[[0,1],[1,1]];fillColor=none;align=center;verticalAlign=bottom;routingCenterY=0.5;snapToPoint=1;recursiveResize=0;autosize=1;treeFolding=1;treeMoving=1;newEdgeStyle={&quot;edgeStyle&quot;:&quot;entityRelationEdgeStyle&quot;,&quot;startArrow&quot;:&quot;none&quot;,&quot;endArrow&quot;:&quot;none&quot;,&quot;segment&quot;:10,&quot;curved&quot;:1,&quot;sourcePerimeterSpacing&quot;:0,&quot;targetPerimeterSpacing&quot;:0};" vertex="1" parent="1">
          <mxGeometry x="919.5" y="27" width="176" height="26" as="geometry" />
        </mxCell>
        <mxCell id="Ww5PmhQgJCaVkp0zgMcv-141" style="edgeStyle=entityRelationEdgeStyle;rounded=0;orthogonalLoop=1;jettySize=auto;html=1;startArrow=none;endArrow=none;segment=10;curved=1;sourcePerimeterSpacing=0;targetPerimeterSpacing=0;entryX=0;entryY=1;entryDx=0;entryDy=0;" edge="1" parent="1" source="Ww5PmhQgJCaVkp0zgMcv-63" target="Ww5PmhQgJCaVkp0zgMcv-127">
          <mxGeometry relative="1" as="geometry" />
        </mxCell>
        <mxCell id="Ww5PmhQgJCaVkp0zgMcv-63" value="потеря (незначительный)" style="whiteSpace=wrap;html=1;shape=partialRectangle;top=0;left=0;bottom=1;right=0;points=[[0,1],[1,1]];fillColor=none;align=center;verticalAlign=bottom;routingCenterY=0.5;snapToPoint=1;recursiveResize=0;autosize=1;treeFolding=1;treeMoving=1;newEdgeStyle={&quot;edgeStyle&quot;:&quot;entityRelationEdgeStyle&quot;,&quot;startArrow&quot;:&quot;none&quot;,&quot;endArrow&quot;:&quot;none&quot;,&quot;segment&quot;:10,&quot;curved&quot;:1,&quot;sourcePerimeterSpacing&quot;:0,&quot;targetPerimeterSpacing&quot;:0};" vertex="1" parent="1">
          <mxGeometry x="919.5" y="300" width="180" height="30" as="geometry" />
        </mxCell>
        <mxCell id="Ww5PmhQgJCaVkp0zgMcv-124" style="edgeStyle=entityRelationEdgeStyle;rounded=0;orthogonalLoop=1;jettySize=auto;html=1;startArrow=none;endArrow=none;segment=10;curved=1;sourcePerimeterSpacing=0;targetPerimeterSpacing=0;entryX=0;entryY=1;entryDx=0;entryDy=0;" edge="1" parent="1" source="Ww5PmhQgJCaVkp0zgMcv-64" target="Ww5PmhQgJCaVkp0zgMcv-123">
          <mxGeometry relative="1" as="geometry" />
        </mxCell>
        <mxCell id="Ww5PmhQgJCaVkp0zgMcv-64" value="потеря (незначительный)" style="whiteSpace=wrap;html=1;shape=partialRectangle;top=0;left=0;bottom=1;right=0;points=[[0,1],[1,1]];fillColor=none;align=center;verticalAlign=bottom;routingCenterY=0.5;snapToPoint=1;recursiveResize=0;autosize=1;treeFolding=1;treeMoving=1;newEdgeStyle={&quot;edgeStyle&quot;:&quot;entityRelationEdgeStyle&quot;,&quot;startArrow&quot;:&quot;none&quot;,&quot;endArrow&quot;:&quot;none&quot;,&quot;segment&quot;:10,&quot;curved&quot;:1,&quot;sourcePerimeterSpacing&quot;:0,&quot;targetPerimeterSpacing&quot;:0};" vertex="1" parent="1">
          <mxGeometry x="921" y="149" width="176" height="26" as="geometry" />
        </mxCell>
        <mxCell id="Ww5PmhQgJCaVkp0zgMcv-116" style="edgeStyle=entityRelationEdgeStyle;rounded=0;orthogonalLoop=1;jettySize=auto;html=1;startArrow=none;endArrow=none;segment=10;curved=1;sourcePerimeterSpacing=0;targetPerimeterSpacing=0;entryX=0;entryY=1;entryDx=0;entryDy=0;" edge="1" parent="1" source="Ww5PmhQgJCaVkp0zgMcv-65" target="Ww5PmhQgJCaVkp0zgMcv-114">
          <mxGeometry relative="1" as="geometry" />
        </mxCell>
        <mxCell id="Ww5PmhQgJCaVkp0zgMcv-65" value="потеря (незначительный)" style="whiteSpace=wrap;html=1;shape=partialRectangle;top=0;left=0;bottom=1;right=0;points=[[0,1],[1,1]];fillColor=none;align=center;verticalAlign=bottom;routingCenterY=0.5;snapToPoint=1;recursiveResize=0;autosize=1;treeFolding=1;treeMoving=1;newEdgeStyle={&quot;edgeStyle&quot;:&quot;entityRelationEdgeStyle&quot;,&quot;startArrow&quot;:&quot;none&quot;,&quot;endArrow&quot;:&quot;none&quot;,&quot;segment&quot;:10,&quot;curved&quot;:1,&quot;sourcePerimeterSpacing&quot;:0,&quot;targetPerimeterSpacing&quot;:0};" vertex="1" parent="1">
          <mxGeometry x="919" y="-101" width="176" height="26" as="geometry" />
        </mxCell>
        <mxCell id="Ww5PmhQgJCaVkp0zgMcv-134" style="edgeStyle=entityRelationEdgeStyle;rounded=0;orthogonalLoop=1;jettySize=auto;html=1;startArrow=none;endArrow=none;segment=10;curved=1;sourcePerimeterSpacing=0;targetPerimeterSpacing=0;entryX=0;entryY=1;entryDx=0;entryDy=0;" edge="1" parent="1" source="Ww5PmhQgJCaVkp0zgMcv-70" target="Ww5PmhQgJCaVkp0zgMcv-131">
          <mxGeometry relative="1" as="geometry" />
        </mxCell>
        <mxCell id="Ww5PmhQgJCaVkp0zgMcv-70" value="потеря (значительный)" style="whiteSpace=wrap;html=1;shape=partialRectangle;top=0;left=0;bottom=1;right=0;points=[[0,1],[1,1]];fillColor=none;align=center;verticalAlign=bottom;routingCenterY=0.5;snapToPoint=1;recursiveResize=0;autosize=1;treeFolding=1;treeMoving=1;newEdgeStyle={&quot;edgeStyle&quot;:&quot;entityRelationEdgeStyle&quot;,&quot;startArrow&quot;:&quot;none&quot;,&quot;endArrow&quot;:&quot;none&quot;,&quot;segment&quot;:10,&quot;curved&quot;:1,&quot;sourcePerimeterSpacing&quot;:0,&quot;targetPerimeterSpacing&quot;:0};" vertex="1" parent="1">
          <mxGeometry x="921" y="386" width="170" height="30" as="geometry" />
        </mxCell>
        <mxCell id="Ww5PmhQgJCaVkp0zgMcv-142" style="edgeStyle=entityRelationEdgeStyle;rounded=0;orthogonalLoop=1;jettySize=auto;html=1;startArrow=none;endArrow=none;segment=10;curved=1;sourcePerimeterSpacing=0;targetPerimeterSpacing=0;" edge="1" parent="1" source="Ww5PmhQgJCaVkp0zgMcv-72" target="Ww5PmhQgJCaVkp0zgMcv-138">
          <mxGeometry relative="1" as="geometry" />
        </mxCell>
        <mxCell id="Ww5PmhQgJCaVkp0zgMcv-72" value="потеря (значительный)" style="whiteSpace=wrap;html=1;shape=partialRectangle;top=0;left=0;bottom=1;right=0;points=[[0,1],[1,1]];fillColor=none;align=center;verticalAlign=bottom;routingCenterY=0.5;snapToPoint=1;recursiveResize=0;autosize=1;treeFolding=1;treeMoving=1;newEdgeStyle={&quot;edgeStyle&quot;:&quot;entityRelationEdgeStyle&quot;,&quot;startArrow&quot;:&quot;none&quot;,&quot;endArrow&quot;:&quot;none&quot;,&quot;segment&quot;:10,&quot;curved&quot;:1,&quot;sourcePerimeterSpacing&quot;:0,&quot;targetPerimeterSpacing&quot;:0};" vertex="1" parent="1">
          <mxGeometry x="919.5" y="530.5" width="170" height="30" as="geometry" />
        </mxCell>
        <mxCell id="Ww5PmhQgJCaVkp0zgMcv-163" style="edgeStyle=entityRelationEdgeStyle;rounded=0;orthogonalLoop=1;jettySize=auto;html=1;startArrow=none;endArrow=none;segment=10;curved=1;sourcePerimeterSpacing=0;targetPerimeterSpacing=0;" edge="1" parent="1" source="Ww5PmhQgJCaVkp0zgMcv-74" target="Ww5PmhQgJCaVkp0zgMcv-162">
          <mxGeometry relative="1" as="geometry" />
        </mxCell>
        <mxCell id="Ww5PmhQgJCaVkp0zgMcv-74" value="потеря (критический)" style="whiteSpace=wrap;html=1;shape=partialRectangle;top=0;left=0;bottom=1;right=0;points=[[0,1],[1,1]];fillColor=none;align=center;verticalAlign=bottom;routingCenterY=0.5;snapToPoint=1;recursiveResize=0;autosize=1;treeFolding=1;treeMoving=1;newEdgeStyle={&quot;edgeStyle&quot;:&quot;entityRelationEdgeStyle&quot;,&quot;startArrow&quot;:&quot;none&quot;,&quot;endArrow&quot;:&quot;none&quot;,&quot;segment&quot;:10,&quot;curved&quot;:1,&quot;sourcePerimeterSpacing&quot;:0,&quot;targetPerimeterSpacing&quot;:0};" vertex="1" parent="1">
          <mxGeometry x="920" y="802" width="160" height="30" as="geometry" />
        </mxCell>
        <mxCell id="Ww5PmhQgJCaVkp0zgMcv-170" style="edgeStyle=entityRelationEdgeStyle;rounded=0;orthogonalLoop=1;jettySize=auto;html=1;startArrow=none;endArrow=none;segment=10;curved=1;sourcePerimeterSpacing=0;targetPerimeterSpacing=0;entryX=0;entryY=1;entryDx=0;entryDy=0;" edge="1" parent="1" source="Ww5PmhQgJCaVkp0zgMcv-76" target="Ww5PmhQgJCaVkp0zgMcv-169">
          <mxGeometry relative="1" as="geometry" />
        </mxCell>
        <mxCell id="Ww5PmhQgJCaVkp0zgMcv-76" value="потеря (значительный)" style="whiteSpace=wrap;html=1;shape=partialRectangle;top=0;left=0;bottom=1;right=0;points=[[0,1],[1,1]];fillColor=none;align=center;verticalAlign=bottom;routingCenterY=0.5;snapToPoint=1;recursiveResize=0;autosize=1;treeFolding=1;treeMoving=1;newEdgeStyle={&quot;edgeStyle&quot;:&quot;entityRelationEdgeStyle&quot;,&quot;startArrow&quot;:&quot;none&quot;,&quot;endArrow&quot;:&quot;none&quot;,&quot;segment&quot;:10,&quot;curved&quot;:1,&quot;sourcePerimeterSpacing&quot;:0,&quot;targetPerimeterSpacing&quot;:0};" vertex="1" parent="1">
          <mxGeometry x="919" y="936" width="170" height="30" as="geometry" />
        </mxCell>
        <mxCell id="Ww5PmhQgJCaVkp0zgMcv-177" style="edgeStyle=entityRelationEdgeStyle;rounded=0;orthogonalLoop=1;jettySize=auto;html=1;startArrow=none;endArrow=none;segment=10;curved=1;sourcePerimeterSpacing=0;targetPerimeterSpacing=0;entryX=0;entryY=1;entryDx=0;entryDy=0;" edge="1" parent="1" source="Ww5PmhQgJCaVkp0zgMcv-78" target="Ww5PmhQgJCaVkp0zgMcv-176">
          <mxGeometry relative="1" as="geometry" />
        </mxCell>
        <mxCell id="Ww5PmhQgJCaVkp0zgMcv-78" value="потеря (значительный)" style="whiteSpace=wrap;html=1;shape=partialRectangle;top=0;left=0;bottom=1;right=0;points=[[0,1],[1,1]];fillColor=none;align=center;verticalAlign=bottom;routingCenterY=0.5;snapToPoint=1;recursiveResize=0;autosize=1;treeFolding=1;treeMoving=1;newEdgeStyle={&quot;edgeStyle&quot;:&quot;entityRelationEdgeStyle&quot;,&quot;startArrow&quot;:&quot;none&quot;,&quot;endArrow&quot;:&quot;none&quot;,&quot;segment&quot;:10,&quot;curved&quot;:1,&quot;sourcePerimeterSpacing&quot;:0,&quot;targetPerimeterSpacing&quot;:0};" vertex="1" parent="1">
          <mxGeometry x="921" y="1066" width="170" height="30" as="geometry" />
        </mxCell>
        <mxCell id="Ww5PmhQgJCaVkp0zgMcv-118" style="edgeStyle=entityRelationEdgeStyle;rounded=0;orthogonalLoop=1;jettySize=auto;html=1;startArrow=none;endArrow=none;segment=10;curved=1;sourcePerimeterSpacing=0;targetPerimeterSpacing=0;entryX=0;entryY=1;entryDx=0;entryDy=0;" edge="1" parent="1" source="Ww5PmhQgJCaVkp0zgMcv-80" target="Ww5PmhQgJCaVkp0zgMcv-117">
          <mxGeometry relative="1" as="geometry" />
        </mxCell>
        <mxCell id="Ww5PmhQgJCaVkp0zgMcv-80" value="искажение (значительный)" style="whiteSpace=wrap;html=1;shape=partialRectangle;top=0;left=0;bottom=1;right=0;points=[[0,1],[1,1]];fillColor=none;align=center;verticalAlign=bottom;routingCenterY=0.5;snapToPoint=1;recursiveResize=0;autosize=1;treeFolding=1;treeMoving=1;newEdgeStyle={&quot;edgeStyle&quot;:&quot;entityRelationEdgeStyle&quot;,&quot;startArrow&quot;:&quot;none&quot;,&quot;endArrow&quot;:&quot;none&quot;,&quot;segment&quot;:10,&quot;curved&quot;:1,&quot;sourcePerimeterSpacing&quot;:0,&quot;targetPerimeterSpacing&quot;:0};" vertex="1" parent="1">
          <mxGeometry x="921" y="-38.5" width="184" height="26" as="geometry" />
        </mxCell>
        <mxCell id="Ww5PmhQgJCaVkp0zgMcv-122" style="edgeStyle=entityRelationEdgeStyle;rounded=0;orthogonalLoop=1;jettySize=auto;html=1;startArrow=none;endArrow=none;segment=10;curved=1;sourcePerimeterSpacing=0;targetPerimeterSpacing=0;entryX=0;entryY=1;entryDx=0;entryDy=0;" edge="1" parent="1" source="Ww5PmhQgJCaVkp0zgMcv-81" target="Ww5PmhQgJCaVkp0zgMcv-121">
          <mxGeometry relative="1" as="geometry" />
        </mxCell>
        <mxCell id="Ww5PmhQgJCaVkp0zgMcv-81" value="искажение (значительный)" style="whiteSpace=wrap;html=1;shape=partialRectangle;top=0;left=0;bottom=1;right=0;points=[[0,1],[1,1]];fillColor=none;align=center;verticalAlign=bottom;routingCenterY=0.5;snapToPoint=1;recursiveResize=0;autosize=1;treeFolding=1;treeMoving=1;newEdgeStyle={&quot;edgeStyle&quot;:&quot;entityRelationEdgeStyle&quot;,&quot;startArrow&quot;:&quot;none&quot;,&quot;endArrow&quot;:&quot;none&quot;,&quot;segment&quot;:10,&quot;curved&quot;:1,&quot;sourcePerimeterSpacing&quot;:0,&quot;targetPerimeterSpacing&quot;:0};" vertex="1" parent="1">
          <mxGeometry x="919" y="88" width="184" height="26" as="geometry" />
        </mxCell>
        <mxCell id="Ww5PmhQgJCaVkp0zgMcv-130" style="edgeStyle=entityRelationEdgeStyle;rounded=0;orthogonalLoop=1;jettySize=auto;html=1;startArrow=none;endArrow=none;segment=10;curved=1;sourcePerimeterSpacing=0;targetPerimeterSpacing=0;entryX=0;entryY=1;entryDx=0;entryDy=0;" edge="1" parent="1" source="Ww5PmhQgJCaVkp0zgMcv-84" target="Ww5PmhQgJCaVkp0zgMcv-128">
          <mxGeometry relative="1" as="geometry" />
        </mxCell>
        <mxCell id="Ww5PmhQgJCaVkp0zgMcv-84" value="искажение (значительный)" style="whiteSpace=wrap;html=1;shape=partialRectangle;top=0;left=0;bottom=1;right=0;points=[[0,1],[1,1]];fillColor=none;align=center;verticalAlign=bottom;routingCenterY=0.5;snapToPoint=1;recursiveResize=0;autosize=1;treeFolding=1;treeMoving=1;newEdgeStyle={&quot;edgeStyle&quot;:&quot;entityRelationEdgeStyle&quot;,&quot;startArrow&quot;:&quot;none&quot;,&quot;endArrow&quot;:&quot;none&quot;,&quot;segment&quot;:10,&quot;curved&quot;:1,&quot;sourcePerimeterSpacing&quot;:0,&quot;targetPerimeterSpacing&quot;:0};" vertex="1" parent="1">
          <mxGeometry x="919" y="346" width="190" height="30" as="geometry" />
        </mxCell>
        <mxCell id="Ww5PmhQgJCaVkp0zgMcv-126" style="edgeStyle=entityRelationEdgeStyle;rounded=0;orthogonalLoop=1;jettySize=auto;html=1;startArrow=none;endArrow=none;segment=10;curved=1;sourcePerimeterSpacing=0;targetPerimeterSpacing=0;entryX=0;entryY=1;entryDx=0;entryDy=0;" edge="1" parent="1" source="Ww5PmhQgJCaVkp0zgMcv-86" target="Ww5PmhQgJCaVkp0zgMcv-125">
          <mxGeometry relative="1" as="geometry" />
        </mxCell>
        <mxCell id="Ww5PmhQgJCaVkp0zgMcv-86" value="искажение (значительный)" style="whiteSpace=wrap;html=1;shape=partialRectangle;top=0;left=0;bottom=1;right=0;points=[[0,1],[1,1]];fillColor=none;align=center;verticalAlign=bottom;routingCenterY=0.5;snapToPoint=1;recursiveResize=0;autosize=1;treeFolding=1;treeMoving=1;newEdgeStyle={&quot;edgeStyle&quot;:&quot;entityRelationEdgeStyle&quot;,&quot;startArrow&quot;:&quot;none&quot;,&quot;endArrow&quot;:&quot;none&quot;,&quot;segment&quot;:10,&quot;curved&quot;:1,&quot;sourcePerimeterSpacing&quot;:0,&quot;targetPerimeterSpacing&quot;:0};" vertex="1" parent="1">
          <mxGeometry x="919" y="206.5" width="190" height="30" as="geometry" />
        </mxCell>
        <mxCell id="Ww5PmhQgJCaVkp0zgMcv-135" style="edgeStyle=entityRelationEdgeStyle;rounded=0;orthogonalLoop=1;jettySize=auto;html=1;startArrow=none;endArrow=none;segment=10;curved=1;sourcePerimeterSpacing=0;targetPerimeterSpacing=0;entryX=0;entryY=1;entryDx=0;entryDy=0;" edge="1" parent="1" source="Ww5PmhQgJCaVkp0zgMcv-88" target="Ww5PmhQgJCaVkp0zgMcv-132">
          <mxGeometry relative="1" as="geometry" />
        </mxCell>
        <mxCell id="Ww5PmhQgJCaVkp0zgMcv-88" value="искажение (значительный)" style="whiteSpace=wrap;html=1;shape=partialRectangle;top=0;left=0;bottom=1;right=0;points=[[0,1],[1,1]];fillColor=none;align=center;verticalAlign=bottom;routingCenterY=0.5;snapToPoint=1;recursiveResize=0;autosize=1;treeFolding=1;treeMoving=1;newEdgeStyle={&quot;edgeStyle&quot;:&quot;entityRelationEdgeStyle&quot;,&quot;startArrow&quot;:&quot;none&quot;,&quot;endArrow&quot;:&quot;none&quot;,&quot;segment&quot;:10,&quot;curved&quot;:1,&quot;sourcePerimeterSpacing&quot;:0,&quot;targetPerimeterSpacing&quot;:0};" vertex="1" parent="1">
          <mxGeometry x="919.5" y="416" width="190" height="30" as="geometry" />
        </mxCell>
        <mxCell id="Ww5PmhQgJCaVkp0zgMcv-144" style="edgeStyle=entityRelationEdgeStyle;rounded=0;orthogonalLoop=1;jettySize=auto;html=1;startArrow=none;endArrow=none;segment=10;curved=1;sourcePerimeterSpacing=0;targetPerimeterSpacing=0;entryX=0;entryY=1;entryDx=0;entryDy=0;" edge="1" parent="1" source="Ww5PmhQgJCaVkp0zgMcv-90" target="Ww5PmhQgJCaVkp0zgMcv-143">
          <mxGeometry relative="1" as="geometry" />
        </mxCell>
        <mxCell id="Ww5PmhQgJCaVkp0zgMcv-90" value="искажение (критический)" style="whiteSpace=wrap;html=1;shape=partialRectangle;top=0;left=0;bottom=1;right=0;points=[[0,1],[1,1]];fillColor=none;align=center;verticalAlign=bottom;routingCenterY=0.5;snapToPoint=1;recursiveResize=0;autosize=1;treeFolding=1;treeMoving=1;newEdgeStyle={&quot;edgeStyle&quot;:&quot;entityRelationEdgeStyle&quot;,&quot;startArrow&quot;:&quot;none&quot;,&quot;endArrow&quot;:&quot;none&quot;,&quot;segment&quot;:10,&quot;curved&quot;:1,&quot;sourcePerimeterSpacing&quot;:0,&quot;targetPerimeterSpacing&quot;:0};" vertex="1" parent="1">
          <mxGeometry x="919.5" y="570" width="180" height="30" as="geometry" />
        </mxCell>
        <mxCell id="Ww5PmhQgJCaVkp0zgMcv-165" style="edgeStyle=entityRelationEdgeStyle;rounded=0;orthogonalLoop=1;jettySize=auto;html=1;startArrow=none;endArrow=none;segment=10;curved=1;sourcePerimeterSpacing=0;targetPerimeterSpacing=0;entryX=0;entryY=1;entryDx=0;entryDy=0;" edge="1" parent="1" source="Ww5PmhQgJCaVkp0zgMcv-92" target="Ww5PmhQgJCaVkp0zgMcv-164">
          <mxGeometry relative="1" as="geometry" />
        </mxCell>
        <mxCell id="Ww5PmhQgJCaVkp0zgMcv-92" value="искажение (критический)" style="whiteSpace=wrap;html=1;shape=partialRectangle;top=0;left=0;bottom=1;right=0;points=[[0,1],[1,1]];fillColor=none;align=center;verticalAlign=bottom;routingCenterY=0.5;snapToPoint=1;recursiveResize=0;autosize=1;treeFolding=1;treeMoving=1;newEdgeStyle={&quot;edgeStyle&quot;:&quot;entityRelationEdgeStyle&quot;,&quot;startArrow&quot;:&quot;none&quot;,&quot;endArrow&quot;:&quot;none&quot;,&quot;segment&quot;:10,&quot;curved&quot;:1,&quot;sourcePerimeterSpacing&quot;:0,&quot;targetPerimeterSpacing&quot;:0};" vertex="1" parent="1">
          <mxGeometry x="921" y="846" width="180" height="30" as="geometry" />
        </mxCell>
        <mxCell id="Ww5PmhQgJCaVkp0zgMcv-172" style="edgeStyle=entityRelationEdgeStyle;rounded=0;orthogonalLoop=1;jettySize=auto;html=1;startArrow=none;endArrow=none;segment=10;curved=1;sourcePerimeterSpacing=0;targetPerimeterSpacing=0;entryX=0;entryY=1;entryDx=0;entryDy=0;" edge="1" parent="1" source="Ww5PmhQgJCaVkp0zgMcv-94" target="Ww5PmhQgJCaVkp0zgMcv-171">
          <mxGeometry relative="1" as="geometry" />
        </mxCell>
        <mxCell id="Ww5PmhQgJCaVkp0zgMcv-94" value="искажение (критический)" style="whiteSpace=wrap;html=1;shape=partialRectangle;top=0;left=0;bottom=1;right=0;points=[[0,1],[1,1]];fillColor=none;align=center;verticalAlign=bottom;routingCenterY=0.5;snapToPoint=1;recursiveResize=0;autosize=1;treeFolding=1;treeMoving=1;newEdgeStyle={&quot;edgeStyle&quot;:&quot;entityRelationEdgeStyle&quot;,&quot;startArrow&quot;:&quot;none&quot;,&quot;endArrow&quot;:&quot;none&quot;,&quot;segment&quot;:10,&quot;curved&quot;:1,&quot;sourcePerimeterSpacing&quot;:0,&quot;targetPerimeterSpacing&quot;:0};" vertex="1" parent="1">
          <mxGeometry x="921" y="976" width="180" height="30" as="geometry" />
        </mxCell>
        <mxCell id="Ww5PmhQgJCaVkp0zgMcv-180" style="edgeStyle=entityRelationEdgeStyle;rounded=0;orthogonalLoop=1;jettySize=auto;html=1;startArrow=none;endArrow=none;segment=10;curved=1;sourcePerimeterSpacing=0;targetPerimeterSpacing=0;entryX=0;entryY=1;entryDx=0;entryDy=0;" edge="1" parent="1" source="Ww5PmhQgJCaVkp0zgMcv-96" target="Ww5PmhQgJCaVkp0zgMcv-178">
          <mxGeometry relative="1" as="geometry" />
        </mxCell>
        <mxCell id="Ww5PmhQgJCaVkp0zgMcv-96" value="искажение (критический)" style="whiteSpace=wrap;html=1;shape=partialRectangle;top=0;left=0;bottom=1;right=0;points=[[0,1],[1,1]];fillColor=none;align=center;verticalAlign=bottom;routingCenterY=0.5;snapToPoint=1;recursiveResize=0;autosize=1;treeFolding=1;treeMoving=1;newEdgeStyle={&quot;edgeStyle&quot;:&quot;entityRelationEdgeStyle&quot;,&quot;startArrow&quot;:&quot;none&quot;,&quot;endArrow&quot;:&quot;none&quot;,&quot;segment&quot;:10,&quot;curved&quot;:1,&quot;sourcePerimeterSpacing&quot;:0,&quot;targetPerimeterSpacing&quot;:0};" vertex="1" parent="1">
          <mxGeometry x="921" y="1106" width="180" height="30" as="geometry" />
        </mxCell>
        <mxCell id="Ww5PmhQgJCaVkp0zgMcv-159" style="edgeStyle=entityRelationEdgeStyle;rounded=0;orthogonalLoop=1;jettySize=auto;html=1;startArrow=none;endArrow=none;segment=10;curved=1;sourcePerimeterSpacing=0;targetPerimeterSpacing=0;entryX=0;entryY=1;entryDx=0;entryDy=0;" edge="1" parent="1" source="Ww5PmhQgJCaVkp0zgMcv-101" target="Ww5PmhQgJCaVkp0zgMcv-152">
          <mxGeometry relative="1" as="geometry" />
        </mxCell>
        <mxCell id="Ww5PmhQgJCaVkp0zgMcv-160" style="edgeStyle=entityRelationEdgeStyle;rounded=0;orthogonalLoop=1;jettySize=auto;html=1;startArrow=none;endArrow=none;segment=10;curved=1;sourcePerimeterSpacing=0;targetPerimeterSpacing=0;entryX=0;entryY=1;entryDx=0;entryDy=0;" edge="1" parent="1" source="Ww5PmhQgJCaVkp0zgMcv-101" target="Ww5PmhQgJCaVkp0zgMcv-154">
          <mxGeometry relative="1" as="geometry" />
        </mxCell>
        <mxCell id="Ww5PmhQgJCaVkp0zgMcv-161" style="edgeStyle=entityRelationEdgeStyle;rounded=0;orthogonalLoop=1;jettySize=auto;html=1;startArrow=none;endArrow=none;segment=10;curved=1;sourcePerimeterSpacing=0;targetPerimeterSpacing=0;entryX=0;entryY=1;entryDx=0;entryDy=0;" edge="1" parent="1" source="Ww5PmhQgJCaVkp0zgMcv-101" target="Ww5PmhQgJCaVkp0zgMcv-150">
          <mxGeometry relative="1" as="geometry" />
        </mxCell>
        <mxCell id="Ww5PmhQgJCaVkp0zgMcv-101" value="персональные&lt;div&gt;данные&amp;nbsp;&lt;span style=&quot;background-color: initial;&quot;&gt;собствеников&lt;/span&gt;&lt;/div&gt;" style="whiteSpace=wrap;html=1;shape=partialRectangle;top=0;left=0;bottom=1;right=0;points=[[0,1],[1,1]];fillColor=none;align=center;verticalAlign=bottom;routingCenterY=0.5;snapToPoint=1;recursiveResize=0;autosize=1;treeFolding=1;treeMoving=1;newEdgeStyle={&quot;edgeStyle&quot;:&quot;entityRelationEdgeStyle&quot;,&quot;startArrow&quot;:&quot;none&quot;,&quot;endArrow&quot;:&quot;none&quot;,&quot;segment&quot;:10,&quot;curved&quot;:1,&quot;sourcePerimeterSpacing&quot;:0,&quot;targetPerimeterSpacing&quot;:0};" vertex="1" parent="1">
          <mxGeometry x="718.5" y="678.5" width="156" height="41" as="geometry" />
        </mxCell>
        <mxCell id="Ww5PmhQgJCaVkp0zgMcv-114" value="Если клиентам не будет доступна&amp;nbsp;&lt;span style=&quot;background-color: initial;&quot;&gt;недвижимость -&lt;/span&gt;&lt;div&gt;&lt;span style=&quot;background-color: initial;&quot;&gt;мы не получим прибыль. У&lt;/span&gt;&lt;span style=&quot;background-color: initial;&quot;&gt;&amp;nbsp;нас есть бекап, поэтому&lt;/span&gt;&lt;/div&gt;&lt;div&gt;&lt;span style=&quot;background-color: initial;&quot;&gt;простой не будет долгим&lt;/span&gt;&lt;/div&gt;" style="whiteSpace=wrap;html=1;shape=partialRectangle;top=0;left=0;bottom=1;right=0;points=[[0,1],[1,1]];fillColor=none;align=left;verticalAlign=bottom;routingCenterY=0.5;snapToPoint=1;recursiveResize=0;autosize=1;treeFolding=1;treeMoving=1;newEdgeStyle={&quot;edgeStyle&quot;:&quot;entityRelationEdgeStyle&quot;,&quot;startArrow&quot;:&quot;none&quot;,&quot;endArrow&quot;:&quot;none&quot;,&quot;segment&quot;:10,&quot;curved&quot;:1,&quot;sourcePerimeterSpacing&quot;:0,&quot;targetPerimeterSpacing&quot;:0};" vertex="1" parent="1">
          <mxGeometry x="1160.5" y="-135" width="330" height="60" as="geometry" />
        </mxCell>
        <mxCell id="Ww5PmhQgJCaVkp0zgMcv-117" value="Можно ввести клиентов в заблуждение&amp;nbsp;&lt;span style=&quot;background-color: initial;&quot;&gt;и получить&lt;/span&gt;&lt;div&gt;&lt;span style=&quot;background-color: initial;&quot;&gt;репутационные издержки. Н&lt;/span&gt;&lt;span style=&quot;background-color: initial;&quot;&gt;аличие&amp;nbsp;&lt;/span&gt;&lt;span style=&quot;background-color: initial;&quot;&gt;бекапа&amp;nbsp;&lt;/span&gt;&lt;/div&gt;&lt;div&gt;&lt;span style=&quot;background-color: initial;&quot;&gt;поможет только после обнаружени искажения&lt;/span&gt;&lt;/div&gt;" style="whiteSpace=wrap;html=1;shape=partialRectangle;top=0;left=0;bottom=1;right=0;points=[[0,1],[1,1]];fillColor=none;align=left;verticalAlign=bottom;routingCenterY=0.5;snapToPoint=1;recursiveResize=0;autosize=1;treeFolding=1;treeMoving=1;newEdgeStyle={&quot;edgeStyle&quot;:&quot;entityRelationEdgeStyle&quot;,&quot;startArrow&quot;:&quot;none&quot;,&quot;endArrow&quot;:&quot;none&quot;,&quot;segment&quot;:10,&quot;curved&quot;:1,&quot;sourcePerimeterSpacing&quot;:0,&quot;targetPerimeterSpacing&quot;:0};" vertex="1" parent="1">
          <mxGeometry x="1160.5" y="-72.5" width="320" height="60" as="geometry" />
        </mxCell>
        <mxCell id="Ww5PmhQgJCaVkp0zgMcv-119" value="Если клиентам не будет доступна&amp;nbsp;&lt;span style=&quot;background-color: initial;&quot;&gt;информация о ремонтах -&lt;/span&gt;&lt;div&gt;&lt;span style=&quot;background-color: initial;&quot;&gt;мы получим только небольшой репутационный ущерб&lt;/span&gt;&lt;span style=&quot;background-color: initial;&quot;&gt;.&lt;/span&gt;&lt;/div&gt;&lt;div&gt;&lt;span style=&quot;background-color: initial;&quot;&gt;У&lt;/span&gt;&lt;span style=&quot;background-color: initial;&quot;&gt;&amp;nbsp;нас есть бекап, поэтому&amp;nbsp;&lt;/span&gt;&lt;span style=&quot;background-color: initial;&quot;&gt;простой не будет долгим&lt;/span&gt;&lt;/div&gt;" style="whiteSpace=wrap;html=1;shape=partialRectangle;top=0;left=0;bottom=1;right=0;points=[[0,1],[1,1]];fillColor=none;align=left;verticalAlign=bottom;routingCenterY=0.5;snapToPoint=1;recursiveResize=0;autosize=1;treeFolding=1;treeMoving=1;newEdgeStyle={&quot;edgeStyle&quot;:&quot;entityRelationEdgeStyle&quot;,&quot;startArrow&quot;:&quot;none&quot;,&quot;endArrow&quot;:&quot;none&quot;,&quot;segment&quot;:10,&quot;curved&quot;:1,&quot;sourcePerimeterSpacing&quot;:0,&quot;targetPerimeterSpacing&quot;:0};" vertex="1" parent="1">
          <mxGeometry x="1160.5" y="-7" width="380" height="60" as="geometry" />
        </mxCell>
        <mxCell id="Ww5PmhQgJCaVkp0zgMcv-121" value="Если у клиентов будет не будет доступна&amp;nbsp;&lt;span style=&quot;background-color: initial;&quot;&gt;информация о ремонтах -&lt;/span&gt;&lt;div&gt;&lt;span style=&quot;background-color: initial;&quot;&gt;мы получим только репутационный ущерб&lt;/span&gt;&lt;span style=&quot;background-color: initial;&quot;&gt;.&lt;/span&gt;&lt;/div&gt;&lt;div&gt;&lt;div&gt;&lt;span style=&quot;background-color: initial;&quot;&gt;Наличие&amp;nbsp;&lt;/span&gt;&lt;span style=&quot;background-color: initial;&quot;&gt;бекапа&amp;nbsp;&lt;/span&gt;&lt;span style=&quot;background-color: initial;&quot;&gt;поможет только после обнаружени искажения&lt;/span&gt;&lt;/div&gt;&lt;/div&gt;" style="whiteSpace=wrap;html=1;shape=partialRectangle;top=0;left=0;bottom=1;right=0;points=[[0,1],[1,1]];fillColor=none;align=left;verticalAlign=bottom;routingCenterY=0.5;snapToPoint=1;recursiveResize=0;autosize=1;treeFolding=1;treeMoving=1;newEdgeStyle={&quot;edgeStyle&quot;:&quot;entityRelationEdgeStyle&quot;,&quot;startArrow&quot;:&quot;none&quot;,&quot;endArrow&quot;:&quot;none&quot;,&quot;segment&quot;:10,&quot;curved&quot;:1,&quot;sourcePerimeterSpacing&quot;:0,&quot;targetPerimeterSpacing&quot;:0};" vertex="1" parent="1">
          <mxGeometry x="1160.5" y="54" width="420" height="60" as="geometry" />
        </mxCell>
        <mxCell id="Ww5PmhQgJCaVkp0zgMcv-123" value="Если клиентам не будет доступна&amp;nbsp;&lt;span style=&quot;background-color: initial;&quot;&gt;информация об услугах ЖКХ-&lt;/span&gt;&lt;div&gt;&lt;span style=&quot;background-color: initial;&quot;&gt;мы получим репутационный ущерб и финансовый (недополученная прибыль)&lt;/span&gt;&lt;span style=&quot;background-color: initial;&quot;&gt;.&lt;/span&gt;&lt;/div&gt;&lt;div&gt;&lt;span style=&quot;background-color: initial;&quot;&gt;У нас есть бекап, поэтому&amp;nbsp;&lt;/span&gt;&lt;span style=&quot;background-color: initial;&quot;&gt;простой не будет долгим&lt;/span&gt;&lt;/div&gt;" style="whiteSpace=wrap;html=1;shape=partialRectangle;top=0;left=0;bottom=1;right=0;points=[[0,1],[1,1]];fillColor=none;align=left;verticalAlign=bottom;routingCenterY=0.5;snapToPoint=1;recursiveResize=0;autosize=1;treeFolding=1;treeMoving=1;newEdgeStyle={&quot;edgeStyle&quot;:&quot;entityRelationEdgeStyle&quot;,&quot;startArrow&quot;:&quot;none&quot;,&quot;endArrow&quot;:&quot;none&quot;,&quot;segment&quot;:10,&quot;curved&quot;:1,&quot;sourcePerimeterSpacing&quot;:0,&quot;targetPerimeterSpacing&quot;:0};" vertex="1" parent="1">
          <mxGeometry x="1160.5" y="115" width="480" height="60" as="geometry" />
        </mxCell>
        <mxCell id="Ww5PmhQgJCaVkp0zgMcv-125" value="Если клиентам у клиентов будет искаженная информация о б услугах&amp;nbsp;&lt;span style=&quot;background-color: initial;&quot;&gt;-&lt;/span&gt;&lt;div&gt;&lt;span style=&quot;background-color: initial;&quot;&gt;мы получим репутационные ущерб и финансовый&lt;/span&gt;&lt;span style=&quot;background-color: initial;&quot;&gt;.&lt;/span&gt;&lt;/div&gt;&lt;div&gt;&lt;span style=&quot;background-color: initial;&quot;&gt;Наличие&amp;nbsp;&lt;/span&gt;&lt;span style=&quot;background-color: initial;&quot;&gt;бекапа&amp;nbsp;&lt;/span&gt;&lt;span style=&quot;background-color: initial;&quot;&gt;поможет только после обнаружени искажения&lt;/span&gt;&lt;br&gt;&lt;/div&gt;" style="whiteSpace=wrap;html=1;shape=partialRectangle;top=0;left=0;bottom=1;right=0;points=[[0,1],[1,1]];fillColor=none;align=left;verticalAlign=bottom;routingCenterY=0.5;snapToPoint=1;recursiveResize=0;autosize=1;treeFolding=1;treeMoving=1;newEdgeStyle={&quot;edgeStyle&quot;:&quot;entityRelationEdgeStyle&quot;,&quot;startArrow&quot;:&quot;none&quot;,&quot;endArrow&quot;:&quot;none&quot;,&quot;segment&quot;:10,&quot;curved&quot;:1,&quot;sourcePerimeterSpacing&quot;:0,&quot;targetPerimeterSpacing&quot;:0};" vertex="1" parent="1">
          <mxGeometry x="1160.5" y="176.5" width="440" height="60" as="geometry" />
        </mxCell>
        <mxCell id="Ww5PmhQgJCaVkp0zgMcv-127" value="&lt;div&gt;Какое-то время не будет доступна информация о бронировании.&lt;/div&gt;&lt;div&gt;Есть бекап - простой не будет долгим&lt;/div&gt;" style="whiteSpace=wrap;html=1;shape=partialRectangle;top=0;left=0;bottom=1;right=0;points=[[0,1],[1,1]];fillColor=none;align=left;verticalAlign=bottom;routingCenterY=0.5;snapToPoint=1;recursiveResize=0;autosize=1;treeFolding=1;treeMoving=1;newEdgeStyle={&quot;edgeStyle&quot;:&quot;entityRelationEdgeStyle&quot;,&quot;startArrow&quot;:&quot;none&quot;,&quot;endArrow&quot;:&quot;none&quot;,&quot;segment&quot;:10,&quot;curved&quot;:1,&quot;sourcePerimeterSpacing&quot;:0,&quot;targetPerimeterSpacing&quot;:0};" vertex="1" parent="1">
          <mxGeometry x="1160.5" y="290" width="400" height="40" as="geometry" />
        </mxCell>
        <mxCell id="Ww5PmhQgJCaVkp0zgMcv-128" value="Может быть неверно забронировано.&lt;div&gt;Бекап помодет только после обнаружения проблемы&lt;/div&gt;" style="whiteSpace=wrap;html=1;shape=partialRectangle;top=0;left=0;bottom=1;right=0;points=[[0,1],[1,1]];fillColor=none;align=left;verticalAlign=bottom;routingCenterY=0.5;snapToPoint=1;recursiveResize=0;autosize=1;treeFolding=1;treeMoving=1;newEdgeStyle={&quot;edgeStyle&quot;:&quot;entityRelationEdgeStyle&quot;,&quot;startArrow&quot;:&quot;none&quot;,&quot;endArrow&quot;:&quot;none&quot;,&quot;segment&quot;:10,&quot;curved&quot;:1,&quot;sourcePerimeterSpacing&quot;:0,&quot;targetPerimeterSpacing&quot;:0};" vertex="1" parent="1">
          <mxGeometry x="1160.5" y="336" width="340" height="40" as="geometry" />
        </mxCell>
        <mxCell id="Ww5PmhQgJCaVkp0zgMcv-131" value="При отсутствующих логах не увидеть кибератаки и причины инцидентов" style="whiteSpace=wrap;html=1;shape=partialRectangle;top=0;left=0;bottom=1;right=0;points=[[0,1],[1,1]];fillColor=none;align=left;verticalAlign=bottom;routingCenterY=0.5;snapToPoint=1;recursiveResize=0;autosize=1;treeFolding=1;treeMoving=1;newEdgeStyle={&quot;edgeStyle&quot;:&quot;entityRelationEdgeStyle&quot;,&quot;startArrow&quot;:&quot;none&quot;,&quot;endArrow&quot;:&quot;none&quot;,&quot;segment&quot;:10,&quot;curved&quot;:1,&quot;sourcePerimeterSpacing&quot;:0,&quot;targetPerimeterSpacing&quot;:0};" vertex="1" parent="1">
          <mxGeometry x="1160.5" y="386" width="440" height="30" as="geometry" />
        </mxCell>
        <mxCell id="Ww5PmhQgJCaVkp0zgMcv-132" value="Атаки могут быть замаскированы и мы не узнаем о проблемах" style="whiteSpace=wrap;html=1;shape=partialRectangle;top=0;left=0;bottom=1;right=0;points=[[0,1],[1,1]];fillColor=none;align=left;verticalAlign=bottom;routingCenterY=0.5;snapToPoint=1;recursiveResize=0;autosize=1;treeFolding=1;treeMoving=1;newEdgeStyle={&quot;edgeStyle&quot;:&quot;entityRelationEdgeStyle&quot;,&quot;startArrow&quot;:&quot;none&quot;,&quot;endArrow&quot;:&quot;none&quot;,&quot;segment&quot;:10,&quot;curved&quot;:1,&quot;sourcePerimeterSpacing&quot;:0,&quot;targetPerimeterSpacing&quot;:0};" vertex="1" parent="1">
          <mxGeometry x="1160.5" y="416" width="390" height="30" as="geometry" />
        </mxCell>
        <mxCell id="Ww5PmhQgJCaVkp0zgMcv-133" value="Преступник может понять устройство системы и облегчить себе атаку" style="whiteSpace=wrap;html=1;shape=partialRectangle;top=0;left=0;bottom=1;right=0;points=[[0,1],[1,1]];fillColor=none;align=left;verticalAlign=bottom;routingCenterY=0.5;snapToPoint=1;recursiveResize=0;autosize=1;treeFolding=1;treeMoving=1;newEdgeStyle={&quot;edgeStyle&quot;:&quot;entityRelationEdgeStyle&quot;,&quot;startArrow&quot;:&quot;none&quot;,&quot;endArrow&quot;:&quot;none&quot;,&quot;segment&quot;:10,&quot;curved&quot;:1,&quot;sourcePerimeterSpacing&quot;:0,&quot;targetPerimeterSpacing&quot;:0};" vertex="1" parent="1">
          <mxGeometry x="1160.5" y="453" width="430" height="30" as="geometry" />
        </mxCell>
        <mxCell id="Ww5PmhQgJCaVkp0zgMcv-138" value="Нарушение бизнес процессов и простои. Есть бекап - можно восстановиться." style="whiteSpace=wrap;html=1;shape=partialRectangle;top=0;left=0;bottom=1;right=0;points=[[0,1],[1,1]];fillColor=none;align=left;verticalAlign=bottom;routingCenterY=0.5;snapToPoint=1;recursiveResize=0;autosize=1;treeFolding=1;treeMoving=1;newEdgeStyle={&quot;edgeStyle&quot;:&quot;entityRelationEdgeStyle&quot;,&quot;startArrow&quot;:&quot;none&quot;,&quot;endArrow&quot;:&quot;none&quot;,&quot;segment&quot;:10,&quot;curved&quot;:1,&quot;sourcePerimeterSpacing&quot;:0,&quot;targetPerimeterSpacing&quot;:0};" vertex="1" parent="1">
          <mxGeometry x="1160.5" y="530.5" width="470" height="30" as="geometry" />
        </mxCell>
        <mxCell id="Ww5PmhQgJCaVkp0zgMcv-143" value="Нарушение бизнес процессов и ошибки, например, при регистрации сделок с недвижимостью&lt;span style=&quot;background-color: initial;&quot;&gt;.&lt;/span&gt;" style="whiteSpace=wrap;html=1;shape=partialRectangle;top=0;left=0;bottom=1;right=0;points=[[0,1],[1,1]];fillColor=none;align=left;verticalAlign=bottom;routingCenterY=0.5;snapToPoint=1;recursiveResize=0;autosize=1;treeFolding=1;treeMoving=1;newEdgeStyle={&quot;edgeStyle&quot;:&quot;entityRelationEdgeStyle&quot;,&quot;startArrow&quot;:&quot;none&quot;,&quot;endArrow&quot;:&quot;none&quot;,&quot;segment&quot;:10,&quot;curved&quot;:1,&quot;sourcePerimeterSpacing&quot;:0,&quot;targetPerimeterSpacing&quot;:0};" vertex="1" parent="1">
          <mxGeometry x="1160.5" y="570" width="570" height="30" as="geometry" />
        </mxCell>
        <mxCell id="Ww5PmhQgJCaVkp0zgMcv-145" value="Значитльный репутационный ущерб и нарешние законодательства" style="whiteSpace=wrap;html=1;shape=partialRectangle;top=0;left=0;bottom=1;right=0;points=[[0,1],[1,1]];fillColor=none;align=left;verticalAlign=bottom;routingCenterY=0.5;snapToPoint=1;recursiveResize=0;autosize=1;treeFolding=1;treeMoving=1;newEdgeStyle={&quot;edgeStyle&quot;:&quot;entityRelationEdgeStyle&quot;,&quot;startArrow&quot;:&quot;none&quot;,&quot;endArrow&quot;:&quot;none&quot;,&quot;segment&quot;:10,&quot;curved&quot;:1,&quot;sourcePerimeterSpacing&quot;:0,&quot;targetPerimeterSpacing&quot;:0};" vertex="1" parent="1">
          <mxGeometry x="1160.5" y="610" width="420" height="30" as="geometry" />
        </mxCell>
        <mxCell id="Ww5PmhQgJCaVkp0zgMcv-149" style="edgeStyle=entityRelationEdgeStyle;rounded=0;orthogonalLoop=1;jettySize=auto;html=1;startArrow=none;endArrow=none;segment=10;curved=1;sourcePerimeterSpacing=0;targetPerimeterSpacing=0;" edge="1" parent="1" source="Ww5PmhQgJCaVkp0zgMcv-150" target="Ww5PmhQgJCaVkp0zgMcv-157">
          <mxGeometry relative="1" as="geometry" />
        </mxCell>
        <mxCell id="Ww5PmhQgJCaVkp0zgMcv-150" value="утечка (критический)" style="whiteSpace=wrap;html=1;shape=partialRectangle;top=0;left=0;bottom=1;right=0;points=[[0,1],[1,1]];fillColor=none;align=center;verticalAlign=bottom;routingCenterY=0.5;snapToPoint=1;recursiveResize=0;autosize=1;treeFolding=1;treeMoving=1;newEdgeStyle={&quot;edgeStyle&quot;:&quot;entityRelationEdgeStyle&quot;,&quot;startArrow&quot;:&quot;none&quot;,&quot;endArrow&quot;:&quot;none&quot;,&quot;segment&quot;:10,&quot;curved&quot;:1,&quot;sourcePerimeterSpacing&quot;:0,&quot;targetPerimeterSpacing&quot;:0};" vertex="1" parent="1">
          <mxGeometry x="919.5" y="729.5" width="160" height="30" as="geometry" />
        </mxCell>
        <mxCell id="Ww5PmhQgJCaVkp0zgMcv-151" style="edgeStyle=entityRelationEdgeStyle;rounded=0;orthogonalLoop=1;jettySize=auto;html=1;startArrow=none;endArrow=none;segment=10;curved=1;sourcePerimeterSpacing=0;targetPerimeterSpacing=0;" edge="1" parent="1" source="Ww5PmhQgJCaVkp0zgMcv-152" target="Ww5PmhQgJCaVkp0zgMcv-155">
          <mxGeometry relative="1" as="geometry" />
        </mxCell>
        <mxCell id="Ww5PmhQgJCaVkp0zgMcv-152" value="потеря (значительный)" style="whiteSpace=wrap;html=1;shape=partialRectangle;top=0;left=0;bottom=1;right=0;points=[[0,1],[1,1]];fillColor=none;align=center;verticalAlign=bottom;routingCenterY=0.5;snapToPoint=1;recursiveResize=0;autosize=1;treeFolding=1;treeMoving=1;newEdgeStyle={&quot;edgeStyle&quot;:&quot;entityRelationEdgeStyle&quot;,&quot;startArrow&quot;:&quot;none&quot;,&quot;endArrow&quot;:&quot;none&quot;,&quot;segment&quot;:10,&quot;curved&quot;:1,&quot;sourcePerimeterSpacing&quot;:0,&quot;targetPerimeterSpacing&quot;:0};" vertex="1" parent="1">
          <mxGeometry x="920" y="650" width="170" height="30" as="geometry" />
        </mxCell>
        <mxCell id="Ww5PmhQgJCaVkp0zgMcv-153" style="edgeStyle=entityRelationEdgeStyle;rounded=0;orthogonalLoop=1;jettySize=auto;html=1;startArrow=none;endArrow=none;segment=10;curved=1;sourcePerimeterSpacing=0;targetPerimeterSpacing=0;entryX=0;entryY=1;entryDx=0;entryDy=0;" edge="1" parent="1" source="Ww5PmhQgJCaVkp0zgMcv-154" target="Ww5PmhQgJCaVkp0zgMcv-156">
          <mxGeometry relative="1" as="geometry" />
        </mxCell>
        <mxCell id="Ww5PmhQgJCaVkp0zgMcv-154" value="искажение (значительный)" style="whiteSpace=wrap;html=1;shape=partialRectangle;top=0;left=0;bottom=1;right=0;points=[[0,1],[1,1]];fillColor=none;align=center;verticalAlign=bottom;routingCenterY=0.5;snapToPoint=1;recursiveResize=0;autosize=1;treeFolding=1;treeMoving=1;newEdgeStyle={&quot;edgeStyle&quot;:&quot;entityRelationEdgeStyle&quot;,&quot;startArrow&quot;:&quot;none&quot;,&quot;endArrow&quot;:&quot;none&quot;,&quot;segment&quot;:10,&quot;curved&quot;:1,&quot;sourcePerimeterSpacing&quot;:0,&quot;targetPerimeterSpacing&quot;:0};" vertex="1" parent="1">
          <mxGeometry x="919" y="689.5" width="190" height="30" as="geometry" />
        </mxCell>
        <mxCell id="Ww5PmhQgJCaVkp0zgMcv-155" value="Нарушение бизнес процессов и простои. Есть бекап - можно восстановиться." style="whiteSpace=wrap;html=1;shape=partialRectangle;top=0;left=0;bottom=1;right=0;points=[[0,1],[1,1]];fillColor=none;align=left;verticalAlign=bottom;routingCenterY=0.5;snapToPoint=1;recursiveResize=0;autosize=1;treeFolding=1;treeMoving=1;newEdgeStyle={&quot;edgeStyle&quot;:&quot;entityRelationEdgeStyle&quot;,&quot;startArrow&quot;:&quot;none&quot;,&quot;endArrow&quot;:&quot;none&quot;,&quot;segment&quot;:10,&quot;curved&quot;:1,&quot;sourcePerimeterSpacing&quot;:0,&quot;targetPerimeterSpacing&quot;:0};" vertex="1" parent="1">
          <mxGeometry x="1161" y="650" width="470" height="30" as="geometry" />
        </mxCell>
        <mxCell id="Ww5PmhQgJCaVkp0zgMcv-156" value="Нарушение бизнес процессов и ошибки, например, в профиле собственика" style="whiteSpace=wrap;html=1;shape=partialRectangle;top=0;left=0;bottom=1;right=0;points=[[0,1],[1,1]];fillColor=none;align=left;verticalAlign=bottom;routingCenterY=0.5;snapToPoint=1;recursiveResize=0;autosize=1;treeFolding=1;treeMoving=1;newEdgeStyle={&quot;edgeStyle&quot;:&quot;entityRelationEdgeStyle&quot;,&quot;startArrow&quot;:&quot;none&quot;,&quot;endArrow&quot;:&quot;none&quot;,&quot;segment&quot;:10,&quot;curved&quot;:1,&quot;sourcePerimeterSpacing&quot;:0,&quot;targetPerimeterSpacing&quot;:0};" vertex="1" parent="1">
          <mxGeometry x="1161" y="689.5" width="460" height="30" as="geometry" />
        </mxCell>
        <mxCell id="Ww5PmhQgJCaVkp0zgMcv-157" value="Значитльный репутационный ущерб и нарешние законодательства" style="whiteSpace=wrap;html=1;shape=partialRectangle;top=0;left=0;bottom=1;right=0;points=[[0,1],[1,1]];fillColor=none;align=left;verticalAlign=bottom;routingCenterY=0.5;snapToPoint=1;recursiveResize=0;autosize=1;treeFolding=1;treeMoving=1;newEdgeStyle={&quot;edgeStyle&quot;:&quot;entityRelationEdgeStyle&quot;,&quot;startArrow&quot;:&quot;none&quot;,&quot;endArrow&quot;:&quot;none&quot;,&quot;segment&quot;:10,&quot;curved&quot;:1,&quot;sourcePerimeterSpacing&quot;:0,&quot;targetPerimeterSpacing&quot;:0};" vertex="1" parent="1">
          <mxGeometry x="1161" y="729.5" width="420" height="30" as="geometry" />
        </mxCell>
        <mxCell id="Ww5PmhQgJCaVkp0zgMcv-162" value="Несмотря на то что у нас есть бекап,&lt;div&gt;мы можем потерять какие-то транзации между бекапами.&amp;nbsp;&lt;/div&gt;&lt;div&gt;Клиент может не получить, за что он заплатил. Или отменил.&lt;/div&gt;&lt;div&gt;Мы можем неправильно считать доходы/расходы&lt;/div&gt;" style="whiteSpace=wrap;html=1;shape=partialRectangle;top=0;left=0;bottom=1;right=0;points=[[0,1],[1,1]];fillColor=none;align=left;verticalAlign=bottom;routingCenterY=0.5;snapToPoint=1;recursiveResize=0;autosize=1;treeFolding=1;treeMoving=1;newEdgeStyle={&quot;edgeStyle&quot;:&quot;entityRelationEdgeStyle&quot;,&quot;startArrow&quot;:&quot;none&quot;,&quot;endArrow&quot;:&quot;none&quot;,&quot;segment&quot;:10,&quot;curved&quot;:1,&quot;sourcePerimeterSpacing&quot;:0,&quot;targetPerimeterSpacing&quot;:0};" vertex="1" parent="1">
          <mxGeometry x="1161" y="762" width="380" height="70" as="geometry" />
        </mxCell>
        <mxCell id="Ww5PmhQgJCaVkp0zgMcv-164" value="См. выше" style="whiteSpace=wrap;html=1;shape=partialRectangle;top=0;left=0;bottom=1;right=0;points=[[0,1],[1,1]];fillColor=none;align=left;verticalAlign=bottom;routingCenterY=0.5;snapToPoint=1;recursiveResize=0;autosize=1;treeFolding=1;treeMoving=1;newEdgeStyle={&quot;edgeStyle&quot;:&quot;entityRelationEdgeStyle&quot;,&quot;startArrow&quot;:&quot;none&quot;,&quot;endArrow&quot;:&quot;none&quot;,&quot;segment&quot;:10,&quot;curved&quot;:1,&quot;sourcePerimeterSpacing&quot;:0,&quot;targetPerimeterSpacing&quot;:0};" vertex="1" parent="1">
          <mxGeometry x="1160.5" y="846" width="100" height="30" as="geometry" />
        </mxCell>
        <mxCell id="Ww5PmhQgJCaVkp0zgMcv-167" value="Последствия непонятны. Если у кого-то будут транзакции человек,&lt;div&gt;он как-нибудь наверно сможет использовать их во вред.&lt;/div&gt;" style="whiteSpace=wrap;html=1;shape=partialRectangle;top=0;left=0;bottom=1;right=0;points=[[0,1],[1,1]];fillColor=none;align=left;verticalAlign=bottom;routingCenterY=0.5;snapToPoint=1;recursiveResize=0;autosize=1;treeFolding=1;treeMoving=1;newEdgeStyle={&quot;edgeStyle&quot;:&quot;entityRelationEdgeStyle&quot;,&quot;startArrow&quot;:&quot;none&quot;,&quot;endArrow&quot;:&quot;none&quot;,&quot;segment&quot;:10,&quot;curved&quot;:1,&quot;sourcePerimeterSpacing&quot;:0,&quot;targetPerimeterSpacing&quot;:0};" vertex="1" parent="1">
          <mxGeometry x="1160.5" y="880" width="410" height="40" as="geometry" />
        </mxCell>
        <mxCell id="Ww5PmhQgJCaVkp0zgMcv-169" value="Бекап поможет, но может потерятся сделка заведенная между бекапа, и придется ее заводить заново или вручную." style="whiteSpace=wrap;html=1;shape=partialRectangle;top=0;left=0;bottom=1;right=0;points=[[0,1],[1,1]];fillColor=none;align=left;verticalAlign=bottom;routingCenterY=0.5;snapToPoint=1;recursiveResize=0;autosize=1;treeFolding=1;treeMoving=1;newEdgeStyle={&quot;edgeStyle&quot;:&quot;entityRelationEdgeStyle&quot;,&quot;startArrow&quot;:&quot;none&quot;,&quot;endArrow&quot;:&quot;none&quot;,&quot;segment&quot;:10,&quot;curved&quot;:1,&quot;sourcePerimeterSpacing&quot;:0,&quot;targetPerimeterSpacing&quot;:0};" vertex="1" parent="1">
          <mxGeometry x="1161" y="936" width="690" height="30" as="geometry" />
        </mxCell>
        <mxCell id="Ww5PmhQgJCaVkp0zgMcv-171" value="Некоректная сделка может быть аннулирована законодательством" style="whiteSpace=wrap;html=1;shape=partialRectangle;top=0;left=0;bottom=1;right=0;points=[[0,1],[1,1]];fillColor=none;align=left;verticalAlign=bottom;routingCenterY=0.5;snapToPoint=1;recursiveResize=0;autosize=1;treeFolding=1;treeMoving=1;newEdgeStyle={&quot;edgeStyle&quot;:&quot;entityRelationEdgeStyle&quot;,&quot;startArrow&quot;:&quot;none&quot;,&quot;endArrow&quot;:&quot;none&quot;,&quot;segment&quot;:10,&quot;curved&quot;:1,&quot;sourcePerimeterSpacing&quot;:0,&quot;targetPerimeterSpacing&quot;:0};" vertex="1" parent="1">
          <mxGeometry x="1161" y="976" width="420" height="30" as="geometry" />
        </mxCell>
        <mxCell id="Ww5PmhQgJCaVkp0zgMcv-173" value="Если там есть персоналка - критический." style="whiteSpace=wrap;html=1;shape=partialRectangle;top=0;left=0;bottom=1;right=0;points=[[0,1],[1,1]];fillColor=none;align=left;verticalAlign=bottom;routingCenterY=0.5;snapToPoint=1;recursiveResize=0;autosize=1;treeFolding=1;treeMoving=1;newEdgeStyle={&quot;edgeStyle&quot;:&quot;entityRelationEdgeStyle&quot;,&quot;startArrow&quot;:&quot;none&quot;,&quot;endArrow&quot;:&quot;none&quot;,&quot;segment&quot;:10,&quot;curved&quot;:1,&quot;sourcePerimeterSpacing&quot;:0,&quot;targetPerimeterSpacing&quot;:0};" vertex="1" parent="1">
          <mxGeometry x="1160.5" y="1016" width="270" height="30" as="geometry" />
        </mxCell>
        <mxCell id="Ww5PmhQgJCaVkp0zgMcv-176" value="Придется восстанавливать вруччную все данные которые не попали в бекап." style="whiteSpace=wrap;html=1;shape=partialRectangle;top=0;left=0;bottom=1;right=0;points=[[0,1],[1,1]];fillColor=none;align=left;verticalAlign=bottom;routingCenterY=0.5;snapToPoint=1;recursiveResize=0;autosize=1;treeFolding=1;treeMoving=1;newEdgeStyle={&quot;edgeStyle&quot;:&quot;entityRelationEdgeStyle&quot;,&quot;startArrow&quot;:&quot;none&quot;,&quot;endArrow&quot;:&quot;none&quot;,&quot;segment&quot;:10,&quot;curved&quot;:1,&quot;sourcePerimeterSpacing&quot;:0,&quot;targetPerimeterSpacing&quot;:0};" vertex="1" parent="1">
          <mxGeometry x="1160.5" y="1066" width="470" height="30" as="geometry" />
        </mxCell>
        <mxCell id="Ww5PmhQgJCaVkp0zgMcv-178" value="Неправильный высчитанный баланс" style="whiteSpace=wrap;html=1;shape=partialRectangle;top=0;left=0;bottom=1;right=0;points=[[0,1],[1,1]];fillColor=none;align=left;verticalAlign=bottom;routingCenterY=0.5;snapToPoint=1;recursiveResize=0;autosize=1;treeFolding=1;treeMoving=1;newEdgeStyle={&quot;edgeStyle&quot;:&quot;entityRelationEdgeStyle&quot;,&quot;startArrow&quot;:&quot;none&quot;,&quot;endArrow&quot;:&quot;none&quot;,&quot;segment&quot;:10,&quot;curved&quot;:1,&quot;sourcePerimeterSpacing&quot;:0,&quot;targetPerimeterSpacing&quot;:0};" vertex="1" parent="1">
          <mxGeometry x="1160.5" y="1106" width="240" height="30" as="geometry" />
        </mxCell>
        <mxCell id="Ww5PmhQgJCaVkp0zgMcv-179" value="Может использоваться конкурентами" style="whiteSpace=wrap;html=1;shape=partialRectangle;top=0;left=0;bottom=1;right=0;points=[[0,1],[1,1]];fillColor=none;align=left;verticalAlign=bottom;routingCenterY=0.5;snapToPoint=1;recursiveResize=0;autosize=1;treeFolding=1;treeMoving=1;newEdgeStyle={&quot;edgeStyle&quot;:&quot;entityRelationEdgeStyle&quot;,&quot;startArrow&quot;:&quot;none&quot;,&quot;endArrow&quot;:&quot;none&quot;,&quot;segment&quot;:10,&quot;curved&quot;:1,&quot;sourcePerimeterSpacing&quot;:0,&quot;targetPerimeterSpacing&quot;:0};" vertex="1" parent="1">
          <mxGeometry x="1160.5" y="1146" width="250" height="30" as="geometry" />
        </mxCell>
      </root>
    </mxGraphModel>
  </diagram>
</mxfile>
